<svg width="137" height="137" viewBox="0 0 137 137" fill="none" xmlns="http://www.w3.org/2000/svg">
<rect width="137" height="137" rx="42" fill="#0A0A0A"/>
<path d="M35.008 55.544C35.008 52.856 35.536 50.48 36.592 48.416C37.648 46.4 39.136 44.864 41.056 43.808C42.928 42.752 45.184 42.296 47.824 42.44L58.768 43.16C60.736 43.304 62.224 42.896 63.232 41.936C64.24 41.024 64.744 39.464 64.744 37.256L64.744 28.688L73.024 28.688L73.024 37.256C73.024 39.464 73.528 41.024 74.536 41.936C75.544 42.896 77.008 43.304 78.928 43.16L90.232 42.44C92.824 42.296 95.056 42.752 96.928 43.808C98.8 44.864 100.24 46.4 101.248 48.416C102.256 50.48 102.76 52.856 102.76 55.544L102.76 60.512L94.48 60.512L94.48 56.84C94.48 55.112 94.072 53.744 93.256 52.736C92.44 51.776 91.144 51.344 89.368 51.44L78.136 52.16C75.304 52.352 73.024 51.512 71.296 49.64C69.568 47.768 68.704 45.152 68.704 41.792L69.208 41.792C69.208 45.104 68.32 47.696 66.544 49.568C64.816 51.488 62.512 52.352 59.632 52.16L48.4 51.44C46.816 51.392 45.568 51.848 44.656 52.808C43.792 53.816 43.36 55.16 43.36 56.84L43.36 60.512L35.008 60.512L35.008 55.544Z" fill="#83D6C5"/>
<path d="M71 81.75L107.5 81.75L107.5 92.6C107.5 95.0667 107.033 97.2 106.1 99C105.167 100.833 103.85 102.25 102.15 103.25C100.45 104.25 98.4333 104.75 96.1 104.75L82.45 104.75C80.15 104.75 78.1333 104.25 76.4 103.25C74.7 102.25 73.3667 100.833 72.4 99C71.4667 97.2 71 95.0667 71 92.6L71 81.75ZM76.75 88L76.75 92.6C76.75 94.4 77.25 95.8333 78.25 96.9C79.2833 97.9667 80.6833 98.5 82.45 98.5L96.1 98.5C97.8333 98.5 99.2 97.9667 100.2 96.9C101.233 95.8333 101.75 94.4 101.75 92.6L101.75 88L76.75 88Z" fill="#83D6C5"/>
<path d="M30 81.75L66.5 81.75L66.5 92.6C66.5 95.0667 66.0333 97.2 65.1 99C64.1667 100.833 62.85 102.25 61.15 103.25C59.45 104.25 57.4333 104.75 55.1 104.75L41.45 104.75C39.15 104.75 37.1333 104.25 35.4 103.25C33.7 102.25 32.3667 100.833 31.4 99C30.4667 97.2 30 95.0667 30 92.6L30 81.75ZM35.75 88L35.75 92.6C35.75 94.4 36.25 95.8333 37.25 96.9C38.2833 97.9667 39.6833 98.5 41.45 98.5L55.1 98.5C56.8333 98.5 58.2 97.9667 59.2 96.9C60.2333 95.8333 60.75 94.4 60.75 92.6L60.75 88L35.75 88Z" fill="#83D6C5"/>
<rect x="13" y="66" width="110" height="8" fill="#83D6C5"/>
<line x1="96.3536" y1="90.3536" x2="89.3536" y2="97.3536" stroke="white"/>
<line x1="89.3536" y1="89.3536" x2="82.3536" y2="96.3536" stroke="white"/>
<line x1="55.3536" y1="90.3536" x2="48.3536" y2="97.3536" stroke="white"/>
<line x1="48.3536" y1="89.3536" x2="41.3536" y2="96.3536" stroke="white"/>
</svg>
