<svg width="402" height="277" viewBox="0 0 402 277" fill="none" xmlns="http://www.w3.org/2000/svg">
<g clip-path="url(#clip0_19_10)">
<path d="M80.7665 97.7153C80.7665 87.9051 82.6935 79.2335 86.5475 71.7007C90.4015 64.343 95.8322 58.7372 102.839 54.8832C109.672 51.0291 117.905 49.3649 127.54 49.8905L167.482 52.5182C174.664 53.0438 180.095 51.5547 183.774 48.0511C187.453 44.7226 189.292 39.0292 189.292 30.9708V-0.299316H219.511V30.9708C219.511 39.0292 221.35 44.7226 225.029 48.0511C228.708 51.5547 234.051 53.0438 241.058 52.5182L282.314 49.8905C291.774 49.3649 299.92 51.0291 306.752 54.8832C313.584 58.7372 318.84 64.343 322.518 71.7007C326.197 79.2335 328.037 87.9051 328.037 97.7153V115.847H297.818V102.445C297.818 96.1386 296.329 91.1459 293.35 87.4671C290.372 83.9635 285.642 82.3868 279.161 82.7372L238.168 85.3649C227.832 86.0656 219.511 83 213.204 76.1678C206.898 69.3357 203.745 59.7883 203.745 47.5255H205.584C205.584 59.6131 202.343 69.073 195.861 75.9051C189.555 82.9124 181.146 86.0656 170.635 85.3649L129.642 82.7372C123.861 82.562 119.307 84.2262 115.978 87.7299C112.825 91.4087 111.248 96.3138 111.248 102.445V115.847H80.7665V97.7153Z" fill="#83D6C5"/>
<path d="M212.124 193.358H345.336V232.956C345.336 241.959 343.631 249.745 340.226 256.314C336.821 263.004 332.015 268.175 325.81 271.825C319.606 275.474 312.246 277.299 303.73 277.299H253.912C245.518 277.299 238.158 275.474 231.832 271.825C225.628 268.175 220.762 263.004 217.234 256.314C213.827 249.745 212.124 241.959 212.124 232.956V193.358ZM233.109 216.168V232.956C233.109 239.526 234.934 244.757 238.584 248.65C242.355 252.543 247.465 254.489 253.912 254.489H303.73C310.056 254.489 315.044 252.543 318.693 248.65C322.463 244.757 324.35 239.526 324.35 232.956V216.168H233.109Z" fill="#83D6C5"/>
<path d="M62.489 193.358H195.701V232.956C195.701 241.959 193.997 249.745 190.591 256.314C187.185 263.004 182.38 268.175 176.175 271.825C169.971 275.474 162.611 277.299 154.095 277.299H104.277C95.8832 277.299 88.523 275.474 82.197 271.825C75.9927 268.175 71.1266 263.004 67.5985 256.314C64.1923 249.745 62.489 241.959 62.489 232.956V193.358ZM83.4744 216.168V232.956C83.4744 239.526 85.2992 244.757 88.9489 248.65C92.72 252.543 97.8295 254.489 104.277 254.489H154.095C160.421 254.489 165.409 252.543 169.058 248.65C172.83 244.757 174.715 239.526 174.715 232.956V216.168H83.4744Z" fill="#83D6C5"/>
<path d="M401.905 135.876H0.445312V165.073H401.905V135.876Z" fill="#83D6C5"/>
<path d="M304.655 224.758L279.108 250.305" stroke="white"/>
<path d="M279.108 221.108L253.561 246.655" stroke="white"/>
<path d="M155.02 224.758L129.473 250.305" stroke="white"/>
<path d="M129.473 221.108L103.926 246.655" stroke="white"/>
</g>
<defs>
<clipPath id="clip0_19_10">
<rect width="402" height="277" fill="white"/>
</clipPath>
</defs>
</svg>
