<svg width="712" height="308" viewBox="0 0 712 308" fill="none" xmlns="http://www.w3.org/2000/svg">
<rect width="712" height="308" fill="black"/>
<path d="M240.5 131V58H262.2C267.133 58 271.4 58.9333 275 60.8C278.667 62.6667 281.5 65.3 283.5 68.7C285.5 72.1 286.5 76.1333 286.5 80.8V108.1C286.5 112.7 285.5 116.733 283.5 120.2C281.5 123.6 278.667 126.267 275 128.2C271.4 130.067 267.133 131 262.2 131H240.5ZM253 119.5H262.2C265.8 119.5 268.667 118.5 270.8 116.5C272.933 114.433 274 111.633 274 108.1V80.8C274 77.3333 272.933 74.6 270.8 72.6C268.667 70.5333 265.8 69.5 262.2 69.5H253V119.5ZM323.061 132C318.394 132 314.328 131.1 310.861 129.3C307.394 127.5 304.694 125 302.761 121.8C300.894 118.533 299.961 114.733 299.961 110.4V96.6C299.961 92.2667 300.894 88.5 302.761 85.3C304.694 82.0333 307.394 79.5 310.861 77.7C314.328 75.9 318.394 75 323.061 75C327.661 75 331.661 75.9 335.061 77.7C338.528 79.5 341.194 82.0333 343.061 85.3C344.994 88.5 345.961 92.2667 345.961 96.6V106.5H312.061V110.4C312.061 114.267 312.994 117.2 314.861 119.2C316.728 121.133 319.494 122.1 323.161 122.1C325.961 122.1 328.228 121.633 329.961 120.7C331.694 119.7 332.794 118.267 333.261 116.4H345.561C344.628 121.133 342.094 124.933 337.961 127.8C333.894 130.6 328.928 132 323.061 132ZM333.861 99.5V96.5C333.861 92.7 332.961 89.8 331.161 87.8C329.361 85.7333 326.661 84.7 323.061 84.7C319.461 84.7 316.728 85.7333 314.861 87.8C312.994 89.8667 312.061 92.8 312.061 96.6V98.7L334.761 98.5L333.861 99.5ZM374.922 131L356.822 76H369.622L380.122 109.4C380.722 111.4 381.289 113.467 381.822 115.6C382.422 117.733 382.855 119.433 383.122 120.7C383.455 119.433 383.889 117.733 384.422 115.6C384.955 113.467 385.489 111.433 386.022 109.5L396.322 76H409.022L391.022 131H374.922ZM420.383 131V58H442.083C447.016 58 451.283 58.9333 454.883 60.8C458.549 62.6667 461.383 65.3 463.383 68.7C465.383 72.1 466.383 76.1333 466.383 80.8V108.1C466.383 112.7 465.383 116.733 463.383 120.2C461.383 123.6 458.549 126.267 454.883 128.2C451.283 130.067 447.016 131 442.083 131H420.383ZM432.883 119.5H442.083C445.683 119.5 448.549 118.5 450.683 116.5C452.816 114.433 453.883 111.633 453.883 108.1V80.8C453.883 77.3333 452.816 74.6 450.683 72.6C448.549 70.5333 445.683 69.5 442.083 69.5H432.883V119.5ZM502.844 132C495.844 132 490.344 130.067 486.344 126.2C482.344 122.267 480.344 116.933 480.344 110.2V76H492.844V110.1C492.844 113.633 493.71 116.367 495.444 118.3C497.177 120.167 499.644 121.1 502.844 121.1C505.977 121.1 508.41 120.167 510.144 118.3C511.944 116.367 512.844 113.633 512.844 110.1V76H525.344V110.2C525.344 116.933 523.31 122.267 519.244 126.2C515.177 130.067 509.71 132 502.844 132ZM562.905 132C558.238 132 554.171 131.1 550.705 129.3C547.238 127.5 544.538 125 542.605 121.8C540.738 118.533 539.805 114.733 539.805 110.4V96.6C539.805 92.2667 540.738 88.5 542.605 85.3C544.538 82.0333 547.238 79.5 550.705 77.7C554.171 75.9 558.238 75 562.905 75C567.505 75 571.505 75.9 574.905 77.7C578.371 79.5 581.038 82.0333 582.905 85.3C584.838 88.5 585.805 92.2667 585.805 96.6V106.5H551.905V110.4C551.905 114.267 552.838 117.2 554.705 119.2C556.571 121.133 559.338 122.1 563.005 122.1C565.805 122.1 568.071 121.633 569.805 120.7C571.538 119.7 572.638 118.267 573.105 116.4H585.405C584.471 121.133 581.938 124.933 577.805 127.8C573.738 130.6 568.771 132 562.905 132ZM573.705 99.5V96.5C573.705 92.7 572.805 89.8 571.005 87.8C569.205 85.7333 566.505 84.7 562.905 84.7C559.305 84.7 556.571 85.7333 554.705 87.8C552.838 89.8667 551.905 92.8 551.905 96.6V98.7L574.605 98.5L573.705 99.5ZM631.166 131C627.566 131 624.399 130.267 621.666 128.8C618.999 127.333 616.899 125.267 615.366 122.6C613.832 119.867 613.066 116.733 613.066 113.2V69.3H595.466V58H625.566V113.2C625.566 115.2 626.132 116.8 627.266 118C628.466 119.133 630.066 119.7 632.066 119.7H648.666V131H631.166Z" fill="white"/>
<g clip-path="url(#clip0_35_7)">
<path d="M83.5476 76.5095C83.5476 72.5429 84.3242 69.0367 85.8773 65.9909C87.4304 63.016 89.6189 60.7494 92.4427 59.1911C95.1959 57.6328 98.5139 56.9599 102.397 57.1724L118.493 58.2348C121.387 58.4473 123.575 57.8453 125.058 56.4286C126.541 55.0828 127.282 52.7808 127.282 49.5225V36.879H139.46V49.5225C139.46 52.7808 140.201 55.0828 141.683 56.4286C143.166 57.8453 145.319 58.4473 148.143 58.2348L164.768 57.1724C168.58 56.9599 171.863 57.6328 174.616 59.1911C177.37 60.7494 179.487 63.016 180.97 65.9909C182.453 69.0367 183.194 72.5429 183.194 76.5095V83.8406H171.016V78.4219C171.016 75.872 170.416 73.8533 169.216 72.3658C168.016 70.9492 166.11 70.3117 163.497 70.4534L146.978 71.5158C142.813 71.7992 139.46 70.5596 136.918 67.7972C134.377 65.0347 133.106 61.1744 133.106 56.2161H133.847C133.847 61.1035 132.541 64.9285 129.929 67.6909C127.388 70.5242 123.999 71.7992 119.763 71.5158L103.244 70.4534C100.914 70.3825 99.0787 71.0554 97.7374 72.4721C96.4667 73.9595 95.8313 75.9428 95.8313 78.4219V83.8406H83.5476V76.5095Z" fill="#83D6C5"/>
<path d="M136.483 115.181H190.165V131.192C190.165 134.832 189.478 137.98 188.106 140.636C186.734 143.341 184.797 145.432 182.297 146.907C179.796 148.383 176.83 149.121 173.399 149.121H153.323C149.94 149.121 146.974 148.383 144.425 146.907C141.925 145.432 139.964 143.341 138.542 140.636C137.169 137.98 136.483 134.832 136.483 131.192V115.181ZM144.94 124.404V131.192C144.94 133.848 145.675 135.963 147.146 137.537C148.666 139.111 150.725 139.898 153.323 139.898H173.399C175.948 139.898 177.958 139.111 179.429 137.537C180.948 135.963 181.708 133.848 181.708 131.192V124.404H144.94Z" fill="#83D6C5"/>
<path d="M76.1821 115.181H129.864V131.192C129.864 134.832 129.178 137.98 127.805 140.636C126.433 143.341 124.496 145.432 121.996 146.907C119.496 148.383 116.53 149.121 113.098 149.121H93.0222C89.6395 149.121 86.6734 148.383 84.1242 146.907C81.6239 145.432 79.6629 143.341 78.2412 140.636C76.8685 137.98 76.1821 134.832 76.1821 131.192V115.181ZM84.6389 124.404V131.192C84.6389 133.848 85.3743 135.963 86.8451 137.537C88.3648 139.111 90.4238 139.898 93.0222 139.898H113.098C115.647 139.898 117.657 139.111 119.128 137.537C120.648 135.963 121.408 133.848 121.408 131.192V124.404H84.6389Z" fill="#83D6C5"/>
<path d="M212.962 91.939H51.1794V103.744H212.962V91.939Z" fill="#83D6C5"/>
<path d="M173.772 127.877L163.476 138.206" stroke="white"/>
<path d="M163.476 126.401L153.181 136.731" stroke="white"/>
<path d="M113.471 127.877L103.176 138.206" stroke="white"/>
<path d="M103.176 126.401L92.8804 136.731" stroke="white"/>
</g>
<path d="M344 240.88V232.12H349.959V233.512H345.614V235.852H349.617V237.244H345.641V240.88H344ZM354.757 241C354.145 241 353.611 240.896 353.156 240.688C352.71 240.472 352.365 240.172 352.119 239.788C351.883 239.396 351.765 238.936 351.765 238.408V234.592C351.765 234.064 351.883 233.608 352.119 233.224C352.365 232.832 352.71 232.532 353.156 232.324C353.611 232.108 354.145 232 354.757 232C355.379 232 355.912 232.108 356.358 232.324C356.805 232.532 357.146 232.832 357.382 233.224C357.628 233.608 357.75 234.06 357.75 234.58V238.408C357.75 238.936 357.628 239.396 357.382 239.788C357.146 240.172 356.805 240.472 356.358 240.688C355.912 240.896 355.379 241 354.757 241ZM354.757 239.68C355.203 239.68 355.541 239.572 355.768 239.356C355.996 239.132 356.109 238.816 356.109 238.408V234.592C356.109 234.176 355.996 233.86 355.768 233.644C355.541 233.428 355.203 233.32 354.757 233.32C354.311 233.32 353.974 233.428 353.747 233.644C353.52 233.86 353.405 234.176 353.405 234.592V238.408C353.405 238.816 353.52 239.132 353.747 239.356C353.983 239.572 354.32 239.68 354.757 239.68ZM359.687 240.88V232.12H362.719C363.358 232.12 363.909 232.228 364.373 232.444C364.845 232.66 365.213 232.964 365.475 233.356C365.738 233.74 365.869 234.196 365.869 234.724C365.869 235.3 365.707 235.808 365.383 236.248C365.068 236.688 364.64 237 364.097 237.184L366 240.88H364.163L362.496 237.4H361.328V240.88H359.687ZM361.328 236.08H362.719C363.183 236.08 363.546 235.964 363.808 235.732C364.071 235.5 364.202 235.18 364.202 234.772C364.202 234.356 364.071 234.032 363.808 233.8C363.546 233.56 363.183 233.44 362.719 233.44H361.328V236.08Z" fill="white" fill-opacity="0.62"/>
<path d="M435.499 215.633C435.499 214.693 435.119 213.815 434.045 213.815C432.339 213.815 432.086 216.072 432.086 217.326C432.086 219.019 432.402 221.464 434.614 221.464C435.499 221.464 436.131 221.15 436.826 220.586V221.84C436.068 222.279 435.246 222.404 434.361 222.404C431.517 222.404 430.506 220.022 430.506 217.514C430.506 215.194 431.39 213 434.108 213C435.815 213 437.142 213.815 437.142 215.633H435.499ZM441.44 222.279V221.401C441.061 222.028 440.365 222.404 439.67 222.404C438.785 222.404 437.964 221.777 437.964 220.837C437.964 219.082 440.176 218.831 441.503 218.768V218.204C441.503 217.577 441.503 216.386 440.618 216.386C439.796 216.386 439.607 217.075 439.607 217.765H438.216C438.343 216.323 439.228 215.821 440.618 215.821C442.388 215.821 442.83 216.574 442.83 218.204V222.216L441.44 222.279ZM441.44 219.332C440.618 219.395 439.354 219.583 439.354 220.649C439.354 221.088 439.607 221.589 440.112 221.589C440.302 221.589 440.492 221.527 440.618 221.464C441.124 221.213 441.44 220.649 441.44 220.085V219.332ZM448.455 222.279V219.395H446.054V222.279H444.726V216.009H446.054V218.643H448.455V216.009H449.783V222.279H448.455ZM451.742 216.009H453.069V218.705C453.828 217.828 454.586 216.95 455.344 216.009H456.672L454.207 218.831C455.028 218.956 455.66 219.144 456.103 220.398L456.735 222.216H455.281L454.776 220.837C454.396 219.771 454.08 219.52 453.259 219.52H453.069V222.279H451.742V216.009ZM460.211 216.762V222.279H458.884V216.762H457.177V216.009H461.981V216.762H460.211ZM462.739 218.329H465.963V219.27H462.739V218.329ZM472.409 222.279V214.129H469.186V222.279H467.732V213.188H473.863V222.279H472.409ZM476.77 218.455C476.77 219.959 477.465 221.715 479.235 221.715C479.678 221.715 480.057 221.652 480.436 221.464V222.091C479.804 222.342 479.298 222.467 478.603 222.467C476.391 222.467 475.443 220.962 475.443 218.893C475.443 217.075 476.201 215.884 478.161 215.884C479.867 215.884 480.626 216.824 480.626 218.455H476.77ZM478.097 216.448C477.276 216.448 476.897 217.138 476.833 217.828H479.298C479.298 217.075 478.919 216.448 478.097 216.448ZM484.228 216.762V222.279H482.901V216.762H481.194V216.009H485.998V216.762H484.228ZM487.768 218.455C487.768 219.959 488.463 221.715 490.232 221.715C490.675 221.715 491.054 221.652 491.433 221.464V222.091C490.801 222.342 490.296 222.467 489.6 222.467C487.388 222.467 486.44 220.962 486.44 218.893C486.44 217.075 487.199 215.884 489.158 215.884C490.864 215.884 491.623 216.824 491.623 218.455H487.768ZM489.032 216.448C488.21 216.448 487.831 217.138 487.768 217.828H490.232C490.232 217.075 489.916 216.448 489.032 216.448ZM496.047 222.404C495.289 222.404 494.783 222.091 494.404 221.401V225.1H493.077V216.009H494.404V217.075C494.72 216.386 495.226 215.884 496.047 215.884C498.006 215.884 498.449 217.577 498.449 219.144C498.449 220.712 497.943 222.404 496.047 222.404ZM495.668 216.699C494.467 216.699 494.404 218.266 494.404 219.144C494.404 220.022 494.404 221.652 495.668 221.652C496.806 221.652 496.932 219.959 496.932 219.144C496.995 218.329 496.869 216.699 495.668 216.699ZM504.643 214.066L502.494 214.881C501.293 215.32 500.787 215.947 500.535 217.013H500.598C500.977 216.26 501.672 215.884 502.557 215.884C504.453 215.884 505.085 217.263 505.085 219.082C505.085 221.088 504.264 222.467 502.304 222.467C500.219 222.467 499.523 221.088 499.523 218.893C499.523 216.448 500.092 214.693 502.178 213.815C502.81 213.564 503.442 213.251 504.137 213L504.643 214.066ZM502.304 221.84C503.505 221.84 503.632 220.335 503.632 219.395V218.893C503.632 217.953 503.568 216.511 502.304 216.511C501.167 216.511 500.914 218.016 500.914 218.893V219.395C500.977 220.335 501.103 221.84 502.304 221.84ZM508.245 225.1H507.171L508.119 222.342L505.717 216.009H507.108L508.751 220.461L510.268 216.009H511.532L508.245 225.1ZM515.514 222.404C514.755 222.404 514.25 222.091 513.87 221.401V225.1H512.543V216.009H513.87V217.075C514.186 216.386 514.692 215.884 515.514 215.884C517.473 215.884 517.915 217.577 517.915 219.144C517.915 220.712 517.41 222.404 515.514 222.404ZM515.198 216.699C513.997 216.699 513.934 218.266 513.934 219.144C513.934 220.022 513.934 221.652 515.198 221.652C516.335 221.652 516.462 219.959 516.462 219.144C516.462 218.329 516.335 216.699 515.198 216.699ZM523.035 216.009V216.762H520.76V222.279H519.432V216.009H523.035ZM526.953 218.078C526.953 217.451 526.89 216.448 526.005 216.448C525.057 216.448 524.805 217.765 524.805 218.455C524.805 219.834 525.373 221.715 527.08 221.715C527.459 221.715 527.838 221.652 528.217 221.464V222.091C527.649 222.279 527.08 222.404 526.511 222.404C524.299 222.404 523.351 220.962 523.351 218.893C523.351 217.138 524.109 215.884 526.005 215.884C527.522 215.884 528.281 216.574 528.281 218.078H526.953ZM529.482 216.009H530.809V218.705C531.567 217.828 532.326 216.95 533.084 216.009H534.411L531.946 218.831C532.768 218.956 533.4 219.144 533.843 220.398L534.475 222.216H533.021L532.515 220.837C532.136 219.771 531.82 219.52 530.998 219.52H530.872V222.279H529.545L529.482 216.009ZM535.675 222.279V216.009H536.939V220.712L539.594 216.009H540.858V222.279H539.594V217.702L536.939 222.342H535.675M542.817 222.279V216.009H544.081V220.712L546.736 216.009H548V222.279H546.736V217.702L544.081 222.342H542.817V222.279ZM547.368 213.063C547.305 214.129 546.673 214.944 545.535 214.944C544.397 214.944 543.639 214.191 543.639 213.063H544.397C544.524 213.627 544.903 213.94 545.472 213.94C546.104 213.94 546.42 213.627 546.61 213.063H547.368ZM434.487 229.991V230.743H432.275V236.26H430.948V229.991H434.487ZM437.648 236.386C435.562 236.386 434.867 234.944 434.867 233.125C434.867 231.307 435.625 229.865 437.648 229.865C439.67 229.865 440.428 231.245 440.428 233.125C440.428 235.006 439.733 236.386 437.648 236.386ZM437.648 230.367C436.384 230.367 436.32 232.185 436.32 233.063C436.32 233.94 436.384 235.759 437.648 235.759C438.912 235.759 438.975 233.94 438.975 233.063C438.975 232.185 438.975 230.367 437.648 230.367ZM445.106 231.997C445.106 231.37 445.042 230.367 444.157 230.367C443.209 230.367 443.02 231.683 443.02 232.373C443.02 233.752 443.589 235.633 445.295 235.633C445.674 235.633 446.054 235.571 446.433 235.382V236.009C445.864 236.197 445.295 236.323 444.726 236.323C442.514 236.323 441.566 234.881 441.566 232.812C441.566 231.056 442.325 229.803 444.221 229.803C445.738 229.803 446.496 230.492 446.496 231.997H445.106ZM449.277 239.019H448.202L449.151 236.26L446.749 229.928H448.139L449.783 234.379L451.299 229.928H452.563L449.277 239.019ZM453.954 236.26C453.891 236.762 453.891 237.263 453.828 237.765H452.753V235.508H453.385C453.891 234.63 454.08 233.125 454.08 231.433V229.991H458.441V235.508H459.326L459.137 237.765H458.062V236.26H453.954ZM455.408 230.68V231.37C455.408 232.812 455.218 234.379 454.649 235.445H457.114V230.68H455.408ZM463.687 236.26V235.382C463.308 236.009 462.613 236.386 461.918 236.386C461.033 236.386 460.211 235.759 460.211 234.818C460.211 233.063 462.423 232.812 463.75 232.749V232.185C463.75 231.558 463.75 230.367 462.866 230.367C462.044 230.367 461.854 231.056 461.854 231.746H460.464C460.59 230.304 461.475 229.803 462.929 229.803C464.698 229.803 465.141 230.555 465.141 232.185V236.197H463.687V236.26ZM463.687 233.313C462.866 233.376 461.602 233.564 461.602 234.63C461.602 235.069 461.854 235.571 462.36 235.571C462.55 235.571 462.739 235.508 462.866 235.445C463.371 235.194 463.687 234.63 463.687 234.066V233.313ZM470.008 236.386C469.249 236.386 468.743 236.072 468.364 235.382V239.019H467.037V229.991H468.364V230.994C468.68 230.304 469.186 229.803 470.008 229.803C471.967 229.803 472.409 231.495 472.409 233.063C472.409 234.63 471.904 236.386 470.008 236.386ZM469.628 230.68C468.427 230.68 468.364 232.248 468.364 233.125C468.364 234.003 468.364 235.633 469.628 235.633C470.766 235.633 470.892 233.94 470.892 233.125C470.892 232.248 470.766 230.68 469.628 230.68ZM476.96 231.997C476.96 231.37 476.897 230.367 476.012 230.367C475.064 230.367 474.811 231.683 474.811 232.373C474.811 233.752 475.38 235.633 477.086 235.633C477.465 235.633 477.845 235.571 478.224 235.382V236.009C477.655 236.197 477.086 236.323 476.517 236.323C474.305 236.323 473.357 234.881 473.357 232.812C473.357 231.056 474.116 229.803 476.012 229.803C477.529 229.803 478.287 230.492 478.287 231.997H476.96ZM481.826 230.68V236.197H480.499V230.68H478.793V229.928H483.596V230.68H481.826ZM486.946 236.26H484.671V229.991H486.883C488.084 229.991 489.284 230.241 489.284 231.495C489.284 232.185 488.842 232.749 487.957 233C489.032 233.125 489.6 233.627 489.6 234.567C489.6 235.947 488.4 236.26 486.946 236.26ZM486.567 230.618H485.998V232.624H486.503C487.262 232.624 487.831 232.436 487.831 231.621C487.894 230.868 487.388 230.618 486.567 230.618ZM486.567 233.313H485.998V235.508H486.567C487.515 235.508 488.21 235.32 488.21 234.379C488.21 233.502 487.515 233.313 486.567 233.313ZM491.939 232.373C491.939 233.878 492.634 235.633 494.404 235.633C494.846 235.633 495.226 235.571 495.605 235.382V236.009C494.973 236.26 494.467 236.386 493.772 236.386C491.56 236.386 490.612 234.881 490.612 232.812C490.612 230.994 491.37 229.803 493.329 229.803C495.036 229.803 495.794 230.743 495.794 232.373H491.939ZM493.203 230.367C492.381 230.367 492.002 231.056 491.939 231.746H494.404C494.404 231.056 494.025 230.367 493.203 230.367ZM500.914 236.26V233.376H498.512V236.26H497.185V229.991H498.512V232.624H500.914V229.991H502.241V236.26H500.914ZM507.929 236.26V233.376H505.591V236.26H504.264V229.991H505.591V232.624H507.993V229.991H509.32V236.26H507.929ZM512.606 229.991V232.624H513.618C514.945 232.624 516.019 233 516.019 234.379C516.019 235.884 514.755 236.26 513.428 236.26H511.279V229.991H512.606ZM512.859 233.313H512.606V235.571H513.302C514.06 235.508 514.629 235.257 514.629 234.442C514.566 233.439 513.87 233.313 512.859 233.313ZM516.715 229.991H518.042V236.26H516.715V229.991ZM520.064 236.26V229.991H521.328V234.693L523.983 229.991H525.247V236.26H523.983V231.621L521.328 236.197L520.064 236.26ZM524.615 226.981C524.552 228.047 523.92 228.862 522.782 228.862C521.644 228.862 520.886 228.11 520.886 226.981H521.644C521.771 227.545 522.15 227.859 522.719 227.859C523.351 227.859 523.667 227.545 523.856 226.918L524.615 226.981ZM432.528 253H431.454L432.402 250.241L430 243.909H431.39L433.034 248.361L434.551 243.909H435.815L432.528 253ZM440.555 250.179V247.295H438.153V250.179H436.826V243.909H438.153V246.542H440.555V243.909H441.882V250.179H440.555ZM443.841 250.179V243.909H445.106V248.611L447.76 243.909H449.024V250.179H447.76V245.602L445.106 250.179H443.841ZM453.259 250.179H450.983V243.909H453.196C454.396 243.909 455.597 244.16 455.597 245.414C455.597 246.103 455.155 246.668 454.27 246.918C455.344 247.044 455.913 247.545 455.913 248.486C455.913 249.865 454.712 250.179 453.259 250.179ZM452.879 244.599H452.311V246.542H452.816C453.575 246.542 454.144 246.354 454.144 245.539C454.207 244.787 453.764 244.599 452.879 244.599ZM452.943 247.232H452.374V249.489H452.943C453.891 249.489 454.586 249.301 454.586 248.361C454.523 247.42 453.828 247.232 452.943 247.232ZM458.252 246.354C458.252 247.859 458.947 249.677 460.717 249.677C461.159 249.677 461.538 249.614 461.918 249.426V250.053C461.285 250.304 460.78 250.429 460.085 250.429C457.873 250.429 456.924 248.925 456.924 246.856C456.924 245.038 457.683 243.846 459.642 243.846C461.349 243.846 462.107 244.787 462.107 246.417L458.252 246.354ZM459.516 244.285C458.694 244.285 458.315 244.975 458.252 245.665H460.717C460.717 244.975 460.401 244.285 459.516 244.285ZM466.531 250.304C465.773 250.304 465.267 249.991 464.888 249.301V253H463.561V243.909H464.888V244.912C465.204 244.223 465.71 243.721 466.531 243.721C468.491 243.721 468.933 245.414 468.933 246.981C468.933 248.549 468.427 250.304 466.531 250.304ZM466.152 244.599C464.951 244.599 464.888 246.166 464.888 247.044C464.888 247.922 464.888 249.552 466.152 249.552C467.29 249.552 467.416 247.859 467.416 247.044C467.416 246.229 467.353 244.599 466.152 244.599ZM473.484 245.915C473.484 245.288 473.42 244.285 472.536 244.285C471.588 244.285 471.335 245.602 471.335 246.292C471.335 247.671 471.904 249.552 473.61 249.552C473.989 249.552 474.369 249.489 474.748 249.301V249.928C474.179 250.116 473.61 250.241 473.041 250.241C470.829 250.241 469.881 248.799 469.881 246.73C469.881 244.975 470.64 243.721 472.536 243.721C474.053 243.721 474.811 244.411 474.811 245.915H473.484ZM476.075 250.179V243.909H477.339V248.611L479.994 243.909H481.258V250.179H479.994V245.602L477.339 250.179H476.075ZM485.366 244.661V250.179H484.039V244.661H482.332V243.909H487.136V244.661H485.366ZM488.905 246.354C488.905 247.859 489.6 249.677 491.37 249.677C491.813 249.677 492.192 249.614 492.571 249.426V250.053C491.939 250.304 491.433 250.429 490.738 250.429C488.526 250.429 487.578 248.925 487.578 246.856C487.578 245.038 488.336 243.846 490.296 243.846C492.002 243.846 492.761 244.787 492.761 246.417L488.905 246.354ZM490.169 244.285C489.348 244.285 488.968 244.975 488.905 245.665H491.37C491.37 244.975 490.991 244.285 490.169 244.285ZM496.3 244.661V250.179H494.973V244.661H493.266V243.909H498.07V244.661H496.3Z" fill="white" fill-opacity="0.39"/>
<path d="M392.208 213.925C392.22 213.96 392.237 213.988 392.249 214.017C392.486 214.52 392.915 215 392.915 215C392.915 215 392.915 215 392.921 215C392.921 215 392.985 214.954 393.106 214.884C393.147 214.861 393.199 214.832 393.257 214.803C393.396 214.734 393.569 214.659 393.79 214.578C394.311 214.393 395 214.335 395 214.335C395 214.335 394.357 213.439 394.236 212.145C394.166 211.41 394.195 211.029 394.201 211.006C394.154 211.006 394.114 211 394.068 211C393.575 211 393.129 211.173 392.776 211.457C392.764 211.462 392.759 211.468 392.747 211.48C392.29 211.855 392 212.428 392 213.064C392 213.243 392.023 213.41 392.069 213.578C392.104 213.682 392.151 213.815 392.197 213.931L392.208 213.925Z" fill="white" fill-opacity="0.39"/>
<path d="M406 221.338C406.217 221.71 406.211 222.172 406.211 222.172C406.211 222.172 406.657 222.255 406.873 222.486C406.873 222.486 406.91 222.447 406.91 222.441C407.205 222.05 407.753 221.415 407.916 220.485C408.042 219.728 407.964 218.67 407.813 218.337C407.813 218.324 407.801 218.305 407.795 218.298C407.94 218.125 408.175 217.715 408.819 217.715C409.06 217.715 409.271 217.785 409.446 217.869C409.729 218.016 409.904 218.209 409.904 218.209C409.904 218.209 409.343 219.273 409.048 219.773C408.898 220.03 408.789 220.235 408.488 220.94C408.235 221.53 408.169 221.922 408.211 222.345C408.247 222.697 408.422 223.377 408.5 224.057C408.645 225.365 408.404 226 408.404 226C408.404 226 408.41 226 408.416 225.987V226C408.416 226 409.873 224.974 410.789 222.691C410.789 222.691 410.783 222.691 410.777 222.691C410.608 222.659 410.47 222.608 410.349 222.544C410.229 222.479 410.12 222.396 410.006 222.306C409.193 221.646 409.374 220.94 409.639 220.607C409.717 220.511 409.789 220.421 409.873 220.331C410.078 220.1 410.301 219.863 410.53 219.574C410.825 219.209 410.928 218.843 410.97 218.523C410.982 218.414 411 218.298 411 218.189C411 217.227 410.56 216.573 410.006 216.246C409.819 216.137 409.62 216.06 409.422 216.028C408.795 215.913 408.036 216.163 407.476 216.567C407.265 216.721 406.91 217.061 406.813 217.324C406.693 217.971 406.873 218.138 407.06 218.805C407.06 218.818 407.072 218.831 407.078 218.843C407.464 220.331 407.265 221.056 406 221.338Z" fill="white" fill-opacity="0.39"/>
<path d="M399.177 220.229C399.332 220.598 399.618 220.955 399.618 220.955L399.658 221C399.658 221 399.813 220.847 400.226 220.669C400.564 220.522 401 220.471 401 220.471C401 220.471 400.57 219.808 400.49 218.858C400.444 218.304 400.461 218.017 400.467 218.017C400.467 218.017 400.461 218.017 400.455 218.017C400.237 217.973 400.014 218.017 399.808 218.126C399.664 218.215 399.538 218.31 399.435 218.419C399.251 218.604 399.125 218.807 399.079 219.024C399.005 219.26 398.976 219.515 399.022 219.783C399.022 219.808 399.102 220.082 399.165 220.235L399.177 220.229Z" fill="white" fill-opacity="0.39"/>
<path d="M401.142 218.844C401.352 219.406 401.706 219.875 401.975 219.975C402.015 219.994 402.054 220 402.094 220C402.376 219.969 402.744 219.431 402.921 218.775C403.091 218.163 402.973 217.644 402.691 217.425C402.625 217.381 402.553 217.338 402.481 217.306C402.468 217.306 402.455 217.3 402.442 217.294C402.579 217.175 402.678 217.006 402.678 216.812C402.678 216.512 402.474 216.269 402.186 216.194V215.931H402.652V215.569H402.186V215H401.805V215.569H401.332V215.931H401.805V216.194C401.523 216.269 401.319 216.512 401.319 216.812C401.319 217 401.404 217.175 401.549 217.294C401.437 217.344 401.332 217.406 401.24 217.481C400.978 217.719 400.912 218.244 401.135 218.844H401.142Z" fill="white" fill-opacity="0.39"/>
<path d="M403 219.756C403 219.756 403.732 219.756 404.465 219.986C404.476 219.986 404.488 219.995 404.499 220C404.597 219.9 404.741 219.747 404.834 219.588C404.897 219.48 404.972 219.285 404.978 219.267C405.024 219.077 404.995 218.896 404.92 218.729C404.874 218.575 404.747 218.43 404.563 218.299C404.459 218.227 404.332 218.154 404.188 218.091C403.98 218.014 403.755 217.982 403.536 218.01C403.536 218.01 403.559 218.218 403.513 218.607C403.432 219.285 403 219.751 403 219.751C403 219.751 403.006 219.751 403.012 219.751L403 219.756Z" fill="white" fill-opacity="0.39"/>
<path d="M398.012 214.336C398.012 214.336 398.701 214.394 399.222 214.579C399.442 214.654 399.622 214.734 399.755 214.804C399.813 214.833 399.859 214.861 399.905 214.885C400.033 214.954 400.091 215 400.091 215H400.097C400.097 215 400.531 214.515 400.763 214.019C400.774 213.99 400.792 213.961 400.803 213.926C400.849 213.811 400.896 213.678 400.931 213.574C400.971 213.413 401 213.24 401 213.061C401 212.426 400.71 211.854 400.253 211.479C400.247 211.473 400.236 211.468 400.224 211.456C399.871 211.173 399.419 211 398.932 211C398.886 211 398.846 211 398.799 211.006C398.805 211.029 398.834 211.41 398.764 212.143C398.643 213.436 398 214.33 398 214.33L398.012 214.336Z" fill="white" fill-opacity="0.39"/>
<path d="M398.818 217.211C398.818 217.211 398.906 217.608 398.956 217.783H399.013C399.346 217.664 400 217.483 400 217.291V216.662C400 216.549 399.874 216.442 399.648 216.345C399.189 216.153 398.321 216.017 397.333 216H396.761C395.742 216.006 394.83 216.147 394.358 216.345C394.132 216.442 394 216.549 394 216.662V217.291C394 217.489 394.66 217.664 394.994 217.783H395.05C395.101 217.608 395.195 217.211 395.195 217.211C395.195 217.211 395.126 217.183 395.107 217.16C395.069 217.081 395.138 217.036 395.264 216.974C395.39 216.911 395.591 216.877 395.761 216.872C395.868 217.217 395.881 217.76 395.862 218.225C395.818 219.158 395.623 220.336 395.006 221.134C395.239 221.338 395.497 221.604 395.761 221.943C396.396 220.84 396.497 219.634 396.553 218.394C396.579 217.845 396.553 217.206 396.553 216.77C396.61 216.77 396.811 216.747 397.006 216.747C397.201 216.747 397.396 216.77 397.459 216.77C397.459 217.206 397.434 217.845 397.459 218.394C397.516 219.657 397.616 220.885 398.283 222C398.528 221.683 398.761 221.423 398.987 221.219C399.006 221.202 399.019 221.179 399.031 221.162C398.396 220.364 398.195 219.17 398.151 218.225C398.126 217.76 398.145 217.217 398.252 216.872C398.421 216.877 398.629 216.911 398.748 216.974C398.874 217.036 398.943 217.081 398.906 217.16C398.893 217.189 398.818 217.211 398.818 217.211Z" fill="white" fill-opacity="0.39"/>
<path d="M406.91 226.426C406.91 226.426 406.91 226.426 406.904 226.426C406.891 226.426 406.885 226.426 406.872 226.426H406.853C406.815 226.426 406.783 226.432 406.745 226.438C406.377 226.463 406.022 226.438 405.724 226.321C405.559 226.265 405.413 226.172 405.273 226.079C405.242 226.055 404.867 225.733 404.798 225.671C404.525 225.424 404.011 225.059 403.484 225.009C402.888 224.953 402.507 225.164 402.076 225.331C402.038 225.349 402.006 225.387 402 225.43C402 225.479 402.025 225.523 402.07 225.541C402.082 225.547 402.101 225.554 402.121 225.554C402.546 225.584 402.952 225.653 403.332 225.764C403.618 225.85 403.897 225.937 404.119 226.092C404.411 226.296 404.664 226.556 404.836 226.661C405.051 226.797 405.248 226.927 405.502 226.976C405.768 227.02 406.041 227.001 406.295 226.939C406.307 226.939 406.32 226.933 406.326 226.927C406.396 226.908 406.46 226.884 406.523 226.859C406.612 226.822 406.701 226.785 406.783 226.741C406.783 226.741 406.789 226.741 406.796 226.741C406.847 226.71 406.904 226.686 406.954 226.649C406.986 226.624 407.005 226.587 406.999 226.55C406.999 226.5 406.954 226.457 406.904 226.451L406.91 226.426Z" fill="white" fill-opacity="0.39"/>
<path d="M405.39 223.213C405.416 223.294 405.507 223.388 405.611 223.444C405.935 223.626 406.052 223.895 405.565 223.951C405.208 223.989 404.838 223.764 403.519 224.114C402.746 224.321 401.836 225.072 401.518 225.416C401.421 225.522 401.317 225.648 401.226 225.779C400.921 226.205 400.921 226.774 401.252 227.187C401.447 227.431 401.668 227.588 401.733 227.632C402.889 228.389 403.974 227.763 404.097 227.644C404.194 227.55 404.201 227.519 404.181 227.494C404.181 227.494 404.181 227.494 404.175 227.494C404.175 227.494 403.805 227.682 403.292 227.682C402.999 227.682 402.7 227.632 402.454 227.525C402.272 227.444 401.856 227.231 401.609 226.849C401.447 226.605 401.486 226.286 401.674 226.061C401.869 225.835 402.103 225.623 402.324 225.466C402.817 225.116 403.389 224.903 404.052 224.89C404.065 224.89 404.084 224.89 404.097 224.89C404.428 224.89 404.747 224.947 405.045 225.04C405.195 225.09 405.344 225.147 405.481 225.216C405.903 225.422 406.273 225.723 406.553 226.092C406.553 226.092 406.553 226.092 406.559 226.098C406.669 225.923 406.786 225.654 406.89 225.285C406.91 225.222 406.929 225.153 406.942 225.078C407.092 224.452 407.046 223 405.617 223C405.591 223 405.565 223.013 405.539 223.019C405.39 223.056 405.351 223.138 405.377 223.219L405.39 223.213Z" fill="white" fill-opacity="0.39"/>
<path d="M382.47 219.574C382.705 219.863 382.922 220.1 383.127 220.331C383.205 220.421 383.283 220.517 383.361 220.607C383.627 220.94 383.807 221.646 382.994 222.306C382.88 222.396 382.771 222.479 382.651 222.544C382.53 222.608 382.392 222.659 382.223 222.691C382.223 222.691 382.217 222.691 382.211 222.691C383.133 224.974 384.584 226 384.584 226V225.987C384.59 225.987 384.596 226 384.596 226C384.596 226 384.355 225.359 384.5 224.057C384.578 223.377 384.753 222.697 384.789 222.345C384.831 221.922 384.765 221.53 384.512 220.94C384.211 220.235 384.102 220.03 383.952 219.773C383.657 219.267 383.096 218.209 383.096 218.209C383.096 218.209 383.271 218.016 383.554 217.869C383.729 217.779 383.94 217.715 384.181 217.715C384.831 217.715 385.066 218.119 385.205 218.298C385.205 218.311 385.193 218.324 385.187 218.337C385.036 218.677 384.952 219.735 385.084 220.485C385.241 221.415 385.789 222.05 386.09 222.441C386.09 222.447 386.127 222.486 386.127 222.486C386.343 222.255 386.783 222.172 386.789 222.172C386.789 222.172 386.777 221.71 387 221.338C385.741 221.056 385.542 220.331 385.922 218.843C385.922 218.831 385.934 218.818 385.94 218.805C386.127 218.138 386.307 217.971 386.187 217.324C386.09 217.067 385.735 216.721 385.524 216.567C384.964 216.163 384.205 215.913 383.578 216.028C383.38 216.067 383.181 216.137 382.994 216.246C382.434 216.573 382 217.227 382 218.189C382 218.305 382.012 218.414 382.03 218.523C382.066 218.843 382.175 219.209 382.47 219.574Z" fill="white" fill-opacity="0.39"/>
<path d="M392.011 220.473C392.011 220.473 392.447 220.523 392.785 220.67C393.198 220.847 393.353 221 393.353 221L393.393 220.956C393.393 220.956 393.68 220.6 393.835 220.231C393.898 220.079 393.972 219.805 393.978 219.78C394.024 219.513 393.995 219.259 393.921 219.024C393.875 218.808 393.749 218.604 393.565 218.42C393.462 218.318 393.336 218.217 393.192 218.128C392.986 218.02 392.763 217.975 392.545 218.013C392.545 218.013 392.539 218.013 392.533 218.013C392.533 218.013 392.556 218.306 392.51 218.852C392.43 219.805 392 220.46 392 220.46L392.011 220.473Z" fill="white" fill-opacity="0.39"/>
<path d="M390.908 219.994C390.947 219.994 390.987 219.981 391.026 219.969C391.297 219.869 391.653 219.4 391.864 218.837C392.088 218.237 392.022 217.712 391.759 217.475C391.666 217.4 391.561 217.338 391.442 217.294C391.587 217.175 391.679 217.006 391.679 216.812C391.679 216.512 391.475 216.269 391.185 216.194V215.931H391.653V215.569H391.185V215H390.802V215.569H390.327V215.931H390.802V216.194C390.519 216.269 390.314 216.512 390.314 216.812C390.314 217.006 390.406 217.175 390.552 217.294C390.538 217.294 390.525 217.3 390.519 217.306C390.446 217.338 390.373 217.375 390.308 217.425C390.024 217.644 389.912 218.156 390.077 218.775C390.255 219.431 390.631 219.969 390.908 220V219.994Z" fill="white" fill-opacity="0.39"/>
<path d="M388.155 219.587C388.247 219.746 388.391 219.9 388.489 220C388.501 219.995 388.512 219.991 388.524 219.986C389.256 219.76 389.988 219.755 389.988 219.755H390C390 219.755 389.568 219.284 389.487 218.608C389.441 218.214 389.464 218.01 389.464 218.01C389.245 217.982 389.02 218.014 388.812 218.091C388.668 218.155 388.541 218.223 388.437 218.3C388.253 218.431 388.126 218.576 388.08 218.73C388.005 218.898 387.976 219.08 388.022 219.27C388.022 219.288 388.103 219.483 388.166 219.592L388.155 219.587Z" fill="white" fill-opacity="0.39"/>
<path d="M390.88 225.56C390.88 225.56 390.911 225.554 390.93 225.547C390.975 225.529 391 225.485 391 225.435C391 225.391 390.968 225.353 390.924 225.335C390.493 225.166 390.113 224.953 389.517 225.009C388.985 225.059 388.478 225.429 388.205 225.679C388.136 225.741 387.762 226.067 387.73 226.092C387.591 226.192 387.445 226.286 387.28 226.336C386.982 226.449 386.627 226.48 386.26 226.455C386.228 226.455 386.19 226.449 386.152 226.442H386.133C386.133 226.442 386.114 226.442 386.101 226.442C386.101 226.442 386.101 226.442 386.095 226.442C386.044 226.449 386.006 226.493 386 226.543C386 226.58 386.013 226.624 386.044 226.643C386.095 226.68 386.146 226.705 386.203 226.737C386.203 226.737 386.209 226.737 386.215 226.737C386.298 226.78 386.38 226.824 386.475 226.856C386.539 226.881 386.608 226.906 386.672 226.924C386.684 226.924 386.697 226.931 386.703 226.937C386.963 227.006 387.236 227.018 387.496 226.974C387.749 226.924 387.939 226.793 388.161 226.655C388.332 226.549 388.586 226.286 388.877 226.079C389.099 225.923 389.384 225.835 389.663 225.748C390.043 225.635 390.449 225.566 390.873 225.535L390.88 225.56Z" fill="white" fill-opacity="0.39"/>
<path d="M386.071 225.083C386.09 225.159 386.103 225.221 386.122 225.29C386.226 225.665 386.349 225.928 386.453 226.103C386.453 226.103 386.453 226.103 386.459 226.097C386.738 225.728 387.108 225.428 387.529 225.221C387.672 225.152 387.814 225.096 387.963 225.046C388.261 224.952 388.579 224.896 388.91 224.896C388.923 224.896 388.942 224.896 388.955 224.896C389.616 224.908 390.187 225.121 390.679 225.471C390.9 225.628 391.133 225.84 391.327 226.066C391.522 226.291 391.554 226.61 391.392 226.854C391.146 227.236 390.731 227.448 390.55 227.53C390.303 227.636 390.005 227.686 389.713 227.686C389.201 227.686 388.838 227.498 388.832 227.498C388.832 227.498 388.832 227.498 388.825 227.498C388.806 227.524 388.812 227.561 388.91 227.649C389.026 227.761 390.109 228.387 391.269 227.636C391.334 227.592 391.554 227.436 391.749 227.192C392.079 226.785 392.079 226.21 391.775 225.784C391.684 225.653 391.58 225.528 391.483 225.421C391.165 225.077 390.258 224.326 389.487 224.12C388.171 223.77 387.801 224.001 387.445 223.957C386.959 223.901 387.075 223.632 387.399 223.45C387.503 223.394 387.594 223.307 387.62 223.219C387.646 223.138 387.613 223.056 387.458 223.019C387.432 223.019 387.406 223 387.38 223C385.954 223 385.909 224.452 386.058 225.077L386.071 225.083Z" fill="white" fill-opacity="0.39"/>
<path d="M397 231.645C397.045 231.709 397.234 231.807 397.279 231.999C397.279 232.021 398 231.5 398 231.5V231L397.234 231.214L397 231.649V231.645Z" fill="white" fill-opacity="0.39"/>
<path d="M392.42 251.444C392.751 251.332 393.057 251.197 393.383 251.037C393.545 250.957 393.702 250.87 393.864 250.766C394.027 250.662 394.183 250.543 394.339 250.407C394.49 250.272 394.633 250.096 394.752 249.905C394.815 249.809 394.865 249.705 394.909 249.586C394.927 249.53 394.952 249.466 394.965 249.41L394.996 249.259C395.015 249.139 394.965 249.027 394.877 249.003C394.846 248.995 394.808 249.003 394.777 249.011C394.746 249.019 394.721 249.043 394.702 249.075C394.602 249.227 394.496 249.33 394.377 249.41C394.264 249.49 394.139 249.546 394.008 249.594C393.739 249.697 393.445 249.745 393.139 249.793C392.839 249.841 392.513 249.881 392.22 249.921C391.919 249.952 391.619 249.976 391.313 249.984L390.362 250.024C390.031 250.048 389.687 250.072 389.293 250.184C389.143 250.232 388.98 250.287 388.811 250.391C388.755 250.423 388.699 250.463 388.643 250.503C388.424 250.678 388.211 250.957 388.105 251.284C387.992 251.612 387.98 251.931 388.023 252.202C388.073 252.481 388.161 252.712 388.317 252.92C388.38 252.999 388.474 253.023 388.549 252.975C388.574 252.959 388.643 252.888 388.643 252.888C388.918 252.321 389.505 252.018 389.618 251.986C390.093 251.843 390.769 251.811 391.425 251.683C391.757 251.619 392.094 251.54 392.426 251.428L392.42 251.444Z" fill="white" fill-opacity="0.39"/>
<path d="M390 249.777C390 249.893 390.063 249.992 390.152 250C390.19 250 390.221 249.992 390.253 249.967L390.303 249.918C390.379 249.852 390.455 249.794 390.537 249.744C390.778 249.604 391.011 249.555 391.252 249.546C391.574 249.53 391.903 249.588 392.282 249.67C392.693 249.769 393.148 249.81 393.597 249.761C393.824 249.736 394.052 249.678 394.286 249.596C394.4 249.546 394.52 249.497 394.64 249.414C394.64 249.414 394.64 249.414 394.646 249.414C394.754 249.332 394.912 249.233 394.988 249.01C395.019 248.928 394.988 248.82 394.924 248.779C394.912 248.779 394.905 248.771 394.893 248.763C394.893 248.763 394.438 248.655 394.254 248.581L393.679 248.391C393.281 248.268 392.908 248.152 392.484 248.061C392.035 247.962 391.498 247.962 391.005 248.218C390.942 248.251 390.879 248.284 390.822 248.325C390.398 248.606 390.032 249.126 390 249.777Z" fill="white" fill-opacity="0.39"/>
<path d="M390.552 247.794C390.552 247.794 390.862 247.697 391 247.66C391 247.66 389.299 247.112 390.27 246.144V246.108C390.105 246.09 389.939 246.108 389.795 246.157C389.643 246.211 389.512 246.297 389.402 246.418C388.941 246.924 389.574 247.478 389.588 247.484C389.492 247.478 389.264 247.447 389.168 247.441C388.755 247.191 388.073 246.577 389.051 245.28C389.023 245.28 389.003 245.28 388.975 245.28C388.831 245.28 388.693 245.298 388.562 245.347C388.486 245.371 388.41 245.396 388.342 245.426C387.86 245.633 387.529 246.035 387.529 246.504C387.529 246.692 387.591 246.875 387.687 247.033C387.756 247.149 387.853 247.252 387.963 247.35C387.887 247.35 387.577 247.325 387.501 247.307C387.054 246.851 386.558 245.998 387.515 245C387.488 245 387.467 245 387.439 245C387.295 245 387.157 245.018 387.026 245.067C386.937 245.097 386.861 245.128 386.785 245.164C386.255 245.432 386 245.944 386 246.364C386 246.552 386.076 246.863 386.158 247.033C386.785 248.391 389.753 247.977 390.552 247.8V247.794Z" fill="white" fill-opacity="0.39"/>
<path d="M404.352 250.499C404.296 250.451 404.239 250.419 404.183 250.388C404.014 250.285 403.852 250.229 403.702 250.182C403.308 250.063 402.965 250.047 402.634 250.023L401.684 249.983C401.378 249.968 401.072 249.952 400.778 249.92C400.484 249.88 400.159 249.841 399.86 249.793C399.56 249.746 399.26 249.69 398.991 249.595C398.86 249.54 398.735 249.484 398.622 249.413C398.504 249.334 398.398 249.231 398.298 249.08C398.279 249.048 398.254 249.032 398.223 249.017C398.191 249.001 398.16 248.993 398.123 249.009C398.035 249.032 397.985 249.151 398.004 249.262L398.035 249.421C398.048 249.476 398.073 249.54 398.091 249.595C398.135 249.706 398.185 249.809 398.248 249.912C398.366 250.102 398.51 250.277 398.66 250.411C398.816 250.546 398.972 250.665 399.135 250.768C399.291 250.871 399.453 250.958 399.616 251.037C399.941 251.196 400.241 251.323 400.578 251.442C400.915 251.553 401.247 251.632 401.578 251.695C402.234 251.814 402.909 251.854 403.383 251.996C403.496 252.028 404.083 252.329 404.358 252.892C404.358 252.892 404.427 252.963 404.452 252.979C404.527 253.019 404.62 253.003 404.683 252.924C404.839 252.718 404.927 252.48 404.977 252.21C405.02 251.941 405.008 251.616 404.895 251.299C404.789 250.974 404.57 250.697 404.358 250.522L404.352 250.499Z" fill="white" fill-opacity="0.39"/>
<path d="M398.347 249.414C398.347 249.414 398.347 249.414 398.354 249.414C398.474 249.497 398.594 249.546 398.708 249.596C398.942 249.678 399.169 249.736 399.397 249.761C399.845 249.81 400.307 249.761 400.711 249.67C401.091 249.579 401.419 249.53 401.742 249.546C401.976 249.546 402.216 249.604 402.456 249.744C402.532 249.794 402.608 249.843 402.69 249.918L402.74 249.959H402.747C402.747 249.959 402.81 250 402.848 250C402.936 250 403.006 249.893 403 249.777C402.968 249.126 402.601 248.614 402.178 248.325C402.115 248.284 402.058 248.243 401.995 248.218C401.495 247.962 400.964 247.962 400.515 248.061C400.092 248.152 399.719 248.268 399.321 248.391L398.746 248.581C398.562 248.647 398.107 248.763 398.107 248.763C398.095 248.763 398.088 248.763 398.076 248.779C398.012 248.82 397.981 248.919 398.012 249.01C398.088 249.233 398.246 249.34 398.354 249.414H398.347Z" fill="white" fill-opacity="0.39"/>
<path d="M406.222 245.165C406.146 245.129 406.063 245.092 405.981 245.068C405.85 245.019 405.712 244.995 405.567 245.001C405.54 245.001 405.519 245.001 405.492 245.001C406.449 245.999 405.953 246.851 405.506 247.307C405.43 247.326 405.12 247.344 405.044 247.35C405.154 247.259 405.251 247.155 405.32 247.033C405.416 246.875 405.478 246.693 405.478 246.504C405.478 246.035 405.147 245.634 404.665 245.427C404.596 245.396 404.521 245.372 404.445 245.348C404.314 245.299 404.176 245.275 404.032 245.281C404.004 245.281 403.983 245.281 403.956 245.281C404.934 246.577 404.252 247.192 403.839 247.441C403.742 247.447 403.515 247.478 403.419 247.484C403.433 247.472 404.073 246.924 403.605 246.419C403.494 246.297 403.364 246.212 403.212 246.157C403.061 246.102 402.895 246.09 402.737 246.108C402.737 246.108 402.737 246.115 402.73 246.108V246.145C403.701 247.113 402 247.66 402 247.66C402.138 247.703 402.427 247.794 402.448 247.8C403.247 247.977 406.215 248.391 406.842 247.033C406.917 246.863 407 246.553 407 246.364C407 245.944 406.738 245.433 406.215 245.165H406.222Z" fill="white" fill-opacity="0.39"/>
<path d="M401.504 236.018C401.208 235.459 400.8 235.097 400.3 235.015C400.03 234.974 399.761 235.015 399.491 235.138L399.438 235.159C399.234 235.254 399.037 235.39 398.846 235.561C398.07 236.263 397.406 237.566 397.129 239.121C396.866 240.608 397.018 241.986 397.465 242.893C397.761 243.5 398.188 243.902 398.708 243.984C399.221 244.066 399.754 243.827 400.234 243.363C400.978 242.647 401.609 241.379 401.872 239.878C402.142 238.344 401.971 236.918 401.491 236.011L401.504 236.018ZM397.965 238.664C398.261 237.491 398.728 236.843 398.728 236.843C398.991 236.441 399.294 236.148 399.596 235.991C399.84 235.847 400.149 235.834 400.458 235.977C400.616 236.052 400.754 236.168 400.859 236.304C400.879 236.338 400.892 236.359 400.912 236.386C400.932 236.427 400.951 236.468 400.971 236.509C401.076 236.727 401.149 236.959 401.201 237.225C401.201 237.259 401.214 237.287 401.214 237.321C401.326 238.132 401.32 238.248 401.313 239.094C401.313 239.142 401.293 239.462 401.287 239.51C401.247 239.831 401.129 240.499 400.767 241.392C400.662 241.74 400.412 242.061 400.418 242.068C399.997 242.811 399.34 243.254 398.886 243.2C398.55 243.159 398.359 242.961 398.248 242.831C397.932 242.463 397.906 242.259 397.86 242.095C397.754 241.747 397.767 241.57 397.754 241.386C397.669 240.472 397.767 239.796 397.866 239.183C397.879 239.101 397.919 238.896 397.945 238.76C397.945 238.76 397.952 238.712 397.965 238.671" fill="white" fill-opacity="0.39"/>
<path d="M417 232.029C416.962 231.903 416.873 231.802 416.766 231.751C416.658 231.694 416.531 231.675 416.405 231.713H416.386C415.847 231.878 415.277 232.048 414.72 232.175C414.442 232.244 414.163 232.307 413.891 232.371C413.612 232.427 413.34 232.478 413.042 232.516C412.459 232.592 411.877 232.661 411.288 232.712C410.914 232.744 410.528 232.769 410.154 232.788C410.205 232.775 410.262 232.762 410.319 232.744C410.484 232.699 410.642 232.655 410.8 232.604C411.117 232.503 411.427 232.402 411.731 232.288C412.345 232.067 412.941 231.821 413.53 231.561C414.125 231.309 414.746 231.018 415.296 230.664C415.847 230.297 416.373 229.918 416.854 229.444C417.006 229.298 417.044 229.065 416.93 228.875C416.88 228.786 416.81 228.723 416.728 228.685C416.588 228.616 416.424 228.616 416.284 228.698L416.265 228.711C415.752 229.008 415.208 229.311 414.67 229.57C414.125 229.836 413.599 230.095 413.017 230.291C412.434 230.493 411.845 230.683 411.256 230.847C410.965 230.929 410.667 231.005 410.376 231.075L410.18 231.119C410.325 231.056 410.471 230.993 410.61 230.923C410.933 230.765 411.237 230.601 411.535 230.43C412.136 230.089 412.706 229.716 413.264 229.336C413.84 228.951 414.41 228.527 414.91 228.053C415.41 227.566 415.866 227.061 416.265 226.473C416.386 226.296 416.373 226.056 416.221 225.898C416.177 225.847 416.126 225.809 416.069 225.784C415.904 225.702 415.695 225.727 415.55 225.86L415.531 225.872C415.068 226.29 414.575 226.719 414.074 227.099C413.568 227.484 413.074 227.864 412.523 228.18C412.421 228.243 412.314 228.293 412.212 228.357C411.75 228.616 411.288 228.869 410.819 229.096C410.731 229.14 410.636 229.178 410.547 229.223C410.376 229.298 410.205 229.374 410.034 229.444C410.066 229.425 410.097 229.4 410.129 229.381C410.332 229.242 410.522 229.09 410.705 228.944C410.807 228.862 410.908 228.78 411.009 228.698C411.56 228.23 412.073 227.737 412.561 227.238C412.561 227.231 412.573 227.225 412.58 227.219C413.099 226.688 413.587 226.144 413.998 225.544C414.404 224.937 414.771 224.324 415.056 223.628C415.138 223.432 415.075 223.199 414.891 223.072C414.891 223.072 414.891 223.072 414.885 223.072C414.676 222.92 414.378 222.971 414.233 223.186L414.22 223.205C413.846 223.736 413.428 224.286 412.991 224.791C412.858 224.943 412.732 225.095 412.599 225.247C412.288 225.594 411.972 225.936 411.63 226.239C411.459 226.391 411.281 226.536 411.11 226.682C410.794 226.947 410.477 227.206 410.148 227.446C410.199 227.383 410.249 227.314 410.3 227.25C410.566 226.884 410.819 226.505 411.053 226.132C411.218 225.872 411.376 225.607 411.535 225.341C411.807 224.88 412.06 224.412 412.276 223.932C412.371 223.717 412.466 223.496 412.548 223.274C412.808 222.547 413.017 221.833 413.131 221.049C413.162 220.834 413.036 220.619 412.827 220.544C412.827 220.544 412.827 220.544 412.82 220.544C412.58 220.455 412.307 220.582 412.225 220.828V220.853C412.022 221.41 411.782 221.979 411.522 222.528C411.484 222.617 411.446 222.705 411.402 222.794C411.11 223.394 410.807 223.976 410.452 224.532C410.433 224.564 410.414 224.602 410.389 224.633C410.123 225.025 409.844 225.398 409.559 225.771C408.685 226.745 407.209 227.718 406.412 228.104C406.025 228.293 405.626 228.553 405.227 228.742C405.227 228.742 405.215 228.749 405.208 228.749C404.942 228.881 404.708 229.084 404.575 229.349C404.543 229.419 404.512 229.488 404.486 229.558C404.442 229.684 404.417 229.823 404.417 229.962C404.417 230.474 404.695 230.961 405.113 231.176C405.253 231.252 405.405 231.296 405.569 231.302C405.595 231.302 405.62 231.302 405.645 231.302C405.791 231.29 405.867 231.226 405.867 231.226C405.867 231.226 405.753 230.929 405.924 230.79C405.949 230.771 405.981 230.759 406.013 230.74C406.089 230.702 406.177 230.683 406.272 230.683C406.361 230.683 406.443 230.702 406.513 230.733C406.735 230.828 406.893 231.049 406.893 231.309C406.893 231.625 406.652 231.89 406.348 231.928C406.209 231.985 405.943 231.991 405.772 231.991C405.417 231.991 405.075 231.953 404.74 231.89C404.277 231.808 403.84 231.663 403.429 231.473C402.929 231.245 402.017 230.575 402.029 230.537C401.086 229.665 400.49 228.464 400.44 227.137C400.44 227.073 400.427 227.017 400.427 226.953C400.427 226.764 400.44 226.555 400.465 226.372C400.503 226.043 400.579 225.721 400.68 225.411C400.864 224.855 401.143 224.336 401.497 223.888C401.529 223.843 401.694 223.666 401.903 223.464C401.915 223.451 401.928 223.439 401.941 223.426C401.941 223.426 401.941 223.426 401.947 223.42C402.175 223.192 402.454 222.939 402.694 222.788C402.675 222.775 402.65 222.756 402.625 222.731C402.593 222.699 402.561 222.668 402.549 222.649C402.118 222.604 401.96 222.402 401.89 222.225C401.89 222.225 401.89 222.212 401.89 222.206C401.89 222.193 401.877 222.174 401.871 222.162C401.846 222.099 401.852 221.903 401.858 221.871C401.89 221.713 401.985 221.555 402.067 221.473C402.105 221.429 402.15 221.391 402.188 221.359C402.321 221.258 402.466 221.201 402.625 221.176C402.663 221.169 402.701 221.163 402.745 221.157H402.758C403.163 221.113 403.555 221.29 403.72 221.7L403.467 221.764C403.384 221.587 403.245 221.511 403.087 221.523C403.036 221.523 402.979 221.542 402.916 221.561C402.878 221.574 402.846 221.593 402.821 221.618C402.561 221.839 402.789 222.396 403.15 222.434C403.207 222.434 403.264 222.434 403.327 222.408C403.327 222.408 403.327 222.408 403.334 222.408C403.492 222.345 404.493 222.105 405.094 222.01C405.208 221.991 405.31 221.979 405.392 221.972C405.392 221.972 405.392 221.972 405.398 221.972C405.5 221.802 405.506 220.695 404.632 220.335C403.942 220.051 403.34 220.006 402.796 220C402.302 220 401.858 220.051 401.396 220.152C399.616 220.544 398.534 221.568 397.546 223.799C396.874 225.114 396.634 226.378 396.539 226.726C396.539 226.726 396.501 226.726 396.437 226.726C396.336 226.353 396.095 225.101 395.437 223.799C394.443 221.574 393.36 220.544 391.58 220.152C391.124 220.051 390.668 220 390.174 220C389.63 220 389.034 220.044 388.338 220.335C387.464 220.695 387.47 221.802 387.571 221.972C387.571 221.972 387.571 221.972 387.578 221.972C387.654 221.972 387.755 221.991 387.875 222.01C388.477 222.105 389.478 222.345 389.636 222.408C389.636 222.408 389.636 222.408 389.642 222.408C389.706 222.434 389.763 222.44 389.82 222.434C390.212 222.389 390.453 221.719 390.054 221.561C389.997 221.536 389.94 221.523 389.883 221.523C389.725 221.511 389.585 221.587 389.503 221.764C389.503 221.764 389.256 221.719 389.243 221.7C389.402 221.283 389.801 221.113 390.206 221.157H390.219C390.257 221.157 390.301 221.169 390.339 221.176C390.548 221.214 390.744 221.302 390.903 221.479C390.985 221.555 391.08 221.713 391.111 221.877C391.118 221.903 391.118 222.105 391.099 222.168C391.099 222.181 391.086 222.193 391.08 222.212C391.08 222.212 391.08 222.225 391.08 222.231C391.01 222.408 390.852 222.611 390.421 222.655C390.402 222.674 390.371 222.705 390.345 222.737C390.32 222.762 390.295 222.788 390.276 222.794C390.529 222.958 390.826 223.236 391.067 223.47C391.276 223.679 391.434 223.856 391.472 223.9C391.827 224.349 392.106 224.867 392.289 225.424C392.391 225.733 392.467 226.056 392.505 226.384C392.524 226.568 392.543 226.783 392.543 226.972C392.543 227.035 392.536 227.099 392.53 227.156C392.53 227.269 392.517 227.377 392.505 227.484C392.384 228.041 392.137 228.944 391.675 229.709C391.65 229.741 391.631 229.779 391.605 229.81H391.612C391.434 230.082 391.232 230.335 390.991 230.544C391.004 230.582 390.092 231.252 389.592 231.479C389.18 231.669 388.743 231.814 388.281 231.896C387.945 231.96 387.603 231.998 387.248 231.998C387.077 231.998 386.811 231.991 386.672 231.934C386.362 231.89 386.128 231.631 386.128 231.315C386.128 231.056 386.286 230.835 386.508 230.74C386.584 230.708 386.666 230.689 386.748 230.689C386.843 230.689 386.925 230.708 387.008 230.746C387.039 230.759 387.071 230.778 387.096 230.797C387.267 230.929 387.153 231.233 387.153 231.233C387.153 231.233 387.236 231.296 387.375 231.309C387.4 231.309 387.419 231.315 387.451 231.309C387.616 231.309 387.774 231.258 387.907 231.182C388.325 230.961 388.604 230.474 388.604 229.969C388.604 229.823 388.578 229.69 388.534 229.564C388.509 229.494 388.483 229.419 388.445 229.355C388.312 229.09 388.078 228.881 387.812 228.755C387.812 228.755 387.799 228.749 387.793 228.749C387.394 228.553 387.001 228.293 386.609 228.11C385.811 227.724 384.335 226.751 383.461 225.778C383.176 225.411 382.898 225.032 382.632 224.64C382.613 224.608 382.594 224.577 382.569 224.539C382.214 223.989 381.91 223.401 381.619 222.8C381.574 222.712 381.543 222.623 381.498 222.535C381.239 221.985 381.004 221.41 380.808 220.86V220.834C380.713 220.594 380.447 220.461 380.2 220.55C380.2 220.55 380.2 220.55 380.194 220.55C379.978 220.626 379.858 220.841 379.89 221.056C379.997 221.839 380.213 222.56 380.472 223.281C380.555 223.502 380.643 223.723 380.745 223.938C380.96 224.419 381.213 224.893 381.486 225.348C381.644 225.613 381.802 225.879 381.967 226.138C382.201 226.517 382.455 226.89 382.721 227.257C382.771 227.32 382.822 227.389 382.872 227.453C382.55 227.212 382.227 226.953 381.91 226.688C381.733 226.542 381.562 226.397 381.391 226.245C381.049 225.942 380.732 225.601 380.422 225.253C380.289 225.101 380.162 224.949 380.029 224.798C379.592 224.292 379.18 223.742 378.8 223.211L378.788 223.192C378.642 222.984 378.345 222.933 378.136 223.078C378.136 223.078 378.136 223.078 378.129 223.078C377.946 223.205 377.882 223.439 377.965 223.635C378.25 224.33 378.617 224.943 379.022 225.55C379.434 226.151 379.921 226.694 380.441 227.225C380.441 227.225 380.453 227.238 380.46 227.244C380.954 227.743 381.46 228.237 382.011 228.704C382.113 228.786 382.214 228.869 382.315 228.951C382.499 229.103 382.689 229.248 382.891 229.387C382.923 229.406 382.955 229.431 382.986 229.45C382.816 229.381 382.645 229.305 382.474 229.229C382.385 229.185 382.29 229.147 382.201 229.103C381.733 228.875 381.27 228.628 380.808 228.363C380.707 228.306 380.599 228.249 380.498 228.186C379.947 227.87 379.453 227.491 378.946 227.105C378.44 226.726 377.946 226.296 377.49 225.879L377.471 225.866C377.325 225.733 377.122 225.714 376.951 225.79C376.894 225.815 376.844 225.853 376.799 225.904C376.654 226.068 376.641 226.309 376.755 226.479C377.154 227.073 377.616 227.573 378.11 228.06C378.611 228.54 379.18 228.957 379.757 229.343C380.314 229.728 380.89 230.095 381.486 230.436C381.783 230.607 382.094 230.771 382.41 230.929C382.55 230.999 382.695 231.062 382.841 231.125L382.645 231.081C382.353 231.012 382.056 230.936 381.764 230.853C381.175 230.689 380.586 230.5 380.004 230.297C379.421 230.101 378.902 229.842 378.351 229.577C377.806 229.317 377.268 229.014 376.755 228.717L376.736 228.704C376.597 228.622 376.426 228.622 376.293 228.692C376.21 228.73 376.134 228.793 376.09 228.881C375.982 229.071 376.02 229.305 376.166 229.45C376.654 229.924 377.173 230.304 377.724 230.67C378.275 231.024 378.895 231.315 379.491 231.568C380.086 231.827 380.681 232.073 381.289 232.295C381.593 232.409 381.904 232.51 382.22 232.611C382.379 232.661 382.537 232.706 382.702 232.75C382.759 232.762 382.809 232.781 382.866 232.794C382.493 232.775 382.113 232.75 381.733 232.718C381.15 232.668 380.561 232.604 379.978 232.522C379.681 232.484 379.408 232.434 379.13 232.377C378.851 232.314 378.579 232.25 378.3 232.181C377.743 232.055 377.179 231.884 376.635 231.719H376.616C376.489 231.675 376.362 231.694 376.255 231.751C376.147 231.808 376.058 231.903 376.02 232.029C375.957 232.238 376.046 232.453 376.223 232.56C376.768 232.895 377.331 233.142 377.914 233.369C378.49 233.591 379.136 233.73 379.725 233.856C380.32 233.982 380.922 234.103 381.524 234.204C382.068 234.292 382.594 234.374 383.164 234.431C382.822 234.476 382.474 234.513 382.125 234.545C381.568 234.602 381.011 234.646 380.453 234.684C380.314 234.697 380.175 234.697 380.035 234.703H379.636L378.826 234.697C378.281 234.697 377.724 234.653 377.186 234.621H377.167C377.072 234.621 376.977 234.64 376.901 234.684C376.768 234.76 376.673 234.899 376.666 235.063C376.654 235.278 376.787 235.468 376.983 235.531C377.559 235.727 378.123 235.847 378.712 235.942C379.003 235.986 379.301 236.012 379.598 236.024C379.75 236.031 379.896 236.037 380.048 236.037H380.479C381.055 236.056 381.631 236.056 382.208 236.05C382.607 236.05 382.695 236.05 383.094 236.031L383.145 236.208C382.486 236.416 382.037 236.549 381.372 236.732C380.852 236.878 380.365 236.972 379.852 237.08C379.345 237.194 378.82 237.282 378.313 237.39H378.3C378.269 237.402 378.231 237.409 378.199 237.428C377.996 237.51 377.876 237.731 377.92 237.952C377.965 238.161 378.136 238.306 378.338 238.325C378.902 238.376 379.453 238.363 380.01 238.325C380.567 238.287 381.131 238.161 381.657 238.066C382.189 237.965 382.974 237.782 383.506 237.674L383.55 237.807C383.328 237.933 382.853 238.186 382.632 238.306C382.41 238.426 382.195 238.54 381.973 238.648C381.758 238.755 381.536 238.856 381.315 238.97C381.315 238.97 381.315 238.97 381.308 238.97C380.865 239.197 380.409 239.412 379.972 239.653H379.966C379.738 239.779 379.649 240.063 379.776 240.297C379.877 240.481 380.08 240.575 380.276 240.538C380.795 240.436 381.289 240.291 381.79 240.133C382.284 239.969 382.765 239.741 383.233 239.532C383.36 239.476 383.854 239.267 383.974 239.21L384.057 239.602C383.981 239.653 383.702 239.849 383.702 239.849L383.157 240.316C382.797 240.632 382.467 240.986 382.151 241.353C381.98 241.555 382.005 241.852 382.201 242.023C382.353 242.149 382.562 242.168 382.727 242.08C382.727 242.08 382.727 242.08 382.733 242.08C383.17 241.852 383.582 241.6 383.974 241.321L384.386 241.081C384.386 241.081 384.614 242.447 384.671 243.009C384.855 244.766 384.804 246.783 384.994 247.017C385.152 247.213 385.469 247.168 385.748 247.175C385.729 247.105 385.722 247.048 385.703 246.979C385.703 246.973 385.703 246.966 385.703 246.96C385.501 246.018 385.779 245.329 385.957 245.045V245.032C385.957 245.032 385.976 244.969 385.976 244.956C385.912 243.844 385.767 242.042 385.513 240.645C385.108 238.42 384.437 234.848 384.24 233.837C384.228 233.78 384.253 233.723 384.291 233.685C384.335 233.647 384.392 233.628 384.456 233.647C385.14 233.818 386.267 233.919 386.989 233.97C387.533 234.008 388.825 234.001 390.162 233.591C389.598 234.924 389.275 236.448 389.275 238.072C389.275 241.252 390.51 244.065 392.397 245.753C392.175 245.79 392.011 245.822 391.96 245.835C391.472 246.005 391.092 246.252 390.884 246.372C390.884 246.372 390.877 246.378 390.871 246.385C390.858 246.391 390.839 246.397 390.826 246.404C390.751 246.442 390.751 246.53 390.763 246.612C390.814 246.84 390.94 247.131 391.067 247.301C391.092 247.339 391.124 247.377 391.168 247.377C392.929 247.466 394.227 247.598 395.266 248.256C395.266 248.256 395.272 248.256 395.278 248.262C395.31 248.281 395.335 248.3 395.361 248.319C395.848 248.705 396.051 249.501 395.646 250.07C395.506 250.209 395.367 250.348 395.221 250.481C394.74 250.898 394.215 251.252 393.664 251.517C393.113 251.783 392.536 251.954 391.954 252.036C391.365 252.143 390.782 252.219 390.016 252.402C390.016 252.402 389.965 252.421 389.946 252.434C389.883 252.478 389.845 252.554 389.864 252.63C389.87 252.662 389.889 252.693 389.908 252.712C390.472 253.319 391.301 253.559 392.106 253.515C392.714 253.471 393.303 253.294 393.841 253.035C394.018 252.946 394.196 252.858 394.36 252.75C395.025 252.339 395.601 251.802 396.032 251.17C396.038 251.157 396.051 251.145 396.057 251.132C396.057 251.138 396.057 251.145 396.057 251.151C395.956 251.492 395.633 252.39 395.373 252.687C395.107 252.99 394.867 253.281 394.588 253.509C394.379 253.679 394.164 253.825 393.917 253.945C393.835 253.983 393.752 254.021 393.67 254.059C393.322 254.204 392.916 254.299 392.441 254.4C392.441 254.4 392.397 254.419 392.378 254.432C392.315 254.469 392.283 254.539 392.296 254.615C392.308 254.659 392.327 254.697 392.365 254.722C392.79 255.019 393.322 255.165 393.873 255.127C394.151 255.108 394.43 255.045 394.696 254.937C394.955 254.83 395.202 254.684 395.418 254.507C395.487 254.451 395.551 254.381 395.614 254.318C395.734 254.558 395.867 254.804 395.956 255.045C396.076 255.335 396.178 255.62 396.336 255.911C396.374 255.974 396.45 256.006 396.482 255.999C396.482 255.999 396.608 255.974 396.64 255.911C396.798 255.62 396.912 255.335 397.033 255.045C397.128 254.804 397.254 254.564 397.375 254.318C397.438 254.381 397.495 254.451 397.571 254.507C397.786 254.684 398.033 254.83 398.293 254.937C398.559 255.045 398.838 255.114 399.116 255.127C399.667 255.158 400.199 255.019 400.623 254.722C400.655 254.697 400.68 254.659 400.693 254.615C400.712 254.539 400.674 254.469 400.611 254.432C400.592 254.419 400.573 254.406 400.547 254.4C400.072 254.299 399.667 254.204 399.319 254.059C399.23 254.027 399.148 253.989 399.072 253.945C398.831 253.825 398.61 253.679 398.401 253.509C398.122 253.281 397.881 252.99 397.615 252.687C397.356 252.39 397.026 251.492 396.931 251.151C396.931 251.145 396.931 251.138 396.931 251.132C396.938 251.145 396.95 251.157 396.957 251.17C397.387 251.802 397.964 252.339 398.629 252.75C398.793 252.851 398.97 252.946 399.148 253.035C399.686 253.294 400.275 253.464 400.883 253.515C401.687 253.559 402.517 253.319 403.08 252.712C403.099 252.687 403.118 252.662 403.125 252.63C403.144 252.554 403.106 252.478 403.042 252.434C403.023 252.421 402.998 252.409 402.973 252.402C402.207 252.219 401.624 252.143 401.035 252.036C400.452 251.954 399.876 251.783 399.325 251.517C398.774 251.252 398.249 250.898 397.767 250.481C397.628 250.348 397.482 250.215 397.343 250.07C396.944 249.501 397.14 248.705 397.628 248.319C397.653 248.3 397.685 248.281 397.71 248.262C397.71 248.262 397.717 248.262 397.723 248.256C398.762 247.598 400.06 247.466 401.82 247.377C401.865 247.377 401.896 247.339 401.922 247.301C402.048 247.131 402.175 246.846 402.226 246.612C402.245 246.53 402.238 246.448 402.162 246.404C402.15 246.397 402.131 246.391 402.118 246.385C402.118 246.385 402.105 246.378 402.105 246.372C401.89 246.246 401.51 246.005 401.022 245.835C400.978 245.822 400.82 245.79 400.611 245.759C402.498 244.071 403.739 241.258 403.739 238.072C403.739 236.448 403.416 234.924 402.846 233.597C404.176 234.001 405.462 234.001 406 233.97C406.728 233.919 407.849 233.818 408.533 233.647C408.596 233.635 408.653 233.647 408.698 233.685C408.736 233.723 408.755 233.78 408.748 233.837C408.558 234.848 407.881 238.414 407.475 240.645C407.222 242.042 407.07 243.844 407.013 244.956C407.013 244.969 407.026 245.026 407.032 245.032V245.045C407.203 245.329 407.488 246.024 407.285 246.96C407.285 246.966 407.285 246.973 407.285 246.979C407.273 247.042 407.26 247.105 407.241 247.175C407.526 247.168 407.836 247.213 407.995 247.017C408.185 246.783 408.134 244.76 408.318 243.009C408.375 242.447 408.603 241.088 408.603 241.081L409.014 241.321C409.407 241.6 409.819 241.852 410.256 242.08C410.256 242.08 410.256 242.08 410.262 242.08C410.427 242.168 410.636 242.149 410.788 242.023C410.99 241.852 411.009 241.555 410.838 241.353C410.522 240.98 410.186 240.632 409.831 240.316L409.287 239.849C409.287 239.849 409.008 239.653 408.932 239.602L409.014 239.21C409.141 239.267 409.629 239.476 409.755 239.532C410.224 239.735 410.705 239.969 411.199 240.133C411.699 240.291 412.193 240.436 412.713 240.538C412.909 240.575 413.118 240.487 413.213 240.297C413.34 240.07 413.251 239.785 413.023 239.659H413.017C412.58 239.419 412.124 239.197 411.68 238.97C411.68 238.97 411.68 238.97 411.674 238.97C411.452 238.862 411.237 238.755 411.015 238.648C410.794 238.54 410.572 238.433 410.357 238.306C410.135 238.186 409.66 237.933 409.439 237.807L409.483 237.674C410.015 237.782 410.794 237.971 411.332 238.066C411.864 238.167 412.421 238.287 412.979 238.325C413.536 238.363 414.087 238.376 414.651 238.325C414.853 238.306 415.024 238.161 415.068 237.952C415.113 237.731 414.993 237.51 414.79 237.428C414.758 237.415 414.727 237.402 414.689 237.396H414.676C414.169 237.288 413.644 237.2 413.137 237.086C412.624 236.979 412.136 236.884 411.617 236.739C410.952 236.555 410.503 236.416 409.844 236.214L409.895 236.037C410.294 236.05 410.382 236.05 410.781 236.056C411.357 236.062 411.934 236.056 412.51 236.05H412.941C413.093 236.043 413.245 236.037 413.39 236.031C413.688 236.018 413.986 235.993 414.277 235.948C414.866 235.854 415.429 235.733 416.006 235.537C416.202 235.468 416.335 235.285 416.322 235.07C416.316 234.905 416.221 234.766 416.088 234.69C416.012 234.646 415.917 234.621 415.822 234.627H415.803C415.265 234.659 414.708 234.697 414.163 234.703L413.352 234.716H412.953C412.808 234.703 412.675 234.697 412.535 234.69C411.978 234.653 411.421 234.608 410.864 234.551C410.515 234.52 410.167 234.476 409.825 234.438C410.395 234.381 410.921 234.299 411.465 234.21C412.067 234.109 412.668 233.989 413.264 233.862C413.853 233.742 414.499 233.597 415.075 233.376C415.664 233.148 416.221 232.902 416.766 232.567C416.943 232.459 417.032 232.244 416.968 232.036L417 232.029ZM396.52 246.372C396.52 246.372 396.501 246.372 396.494 246.372C394.398 246.359 392.543 244.956 391.422 242.82C391.941 241.941 393.024 240.019 393.024 240.019C393.125 240.411 393.727 243.015 393.727 243.015C393.727 243.015 392.967 243.344 393.353 243.578C393.74 243.812 394.557 243.641 394.557 243.641C394.557 243.641 394.766 243.831 394.987 243.983C395.253 244.185 395.557 244.33 395.88 244.419C396 244.469 396.089 244.495 396.089 244.495C396.089 244.495 396.013 244.855 396.127 245.038C396.171 245.114 396.216 245.177 396.361 245.177C396.406 245.177 396.444 245.165 396.488 245.152C396.615 245.108 396.735 245.007 396.805 244.931C396.982 244.747 397.045 244.621 397.172 244.444C397.172 244.438 397.172 244.425 397.185 244.412C397.495 244.33 397.824 244.216 398.141 243.825C397.381 243.527 396.735 242.832 396.488 241.688C396.399 241.271 396.349 240.816 396.342 240.335C396.342 239.83 396.38 239.305 396.475 238.761C396.475 238.742 396.482 238.723 396.488 238.704C396.843 236.827 398.014 235.392 398.356 235.272C398.249 235.032 398.293 234.419 397.476 234.084C397.299 234.008 396.754 233.976 396.697 233.73C396.957 233.553 397.153 233.224 397.197 232.832C397.261 232.301 397.039 231.827 396.678 231.656C396.767 231.46 396.976 231.195 396.976 231.195L396.564 230.759L396.482 230.803L396.038 231.043C396.038 231.043 396.171 231.429 396.171 231.631C395.817 231.751 395.557 232.023 395.494 232.516C395.462 232.756 395.595 233.129 395.874 233.407C396.019 233.553 396.051 233.679 395.962 233.774C395.76 233.976 395.342 233.926 395.126 234.235C394.993 234.431 394.829 234.886 394.829 234.886C394.728 235.089 394.132 236.511 393.841 237.01C393.765 237.137 393.474 237.598 393.474 237.598C393.474 237.598 393.347 237.687 393.201 237.8C393.081 237.895 392.954 238.009 392.878 238.104C392.657 238.388 392.745 238.907 392.878 239.122L391.149 242.27C391.08 242.124 391.048 242.048 391.048 242.048C390.561 240.866 390.288 239.507 390.288 238.066C390.288 233.654 392.878 230.038 396.133 229.779H396.887C397.248 229.81 397.596 229.88 397.938 229.987C398.116 230.044 398.293 230.108 398.464 230.183C400.934 231.283 402.726 234.4 402.726 238.066C402.726 242.649 399.939 246.372 396.507 246.372H396.52ZM395.88 237.377C395.88 237.377 394.671 237.832 394.094 238.066L395.272 236.024C395.272 236.024 395.329 236.309 395.804 236.511C395.791 236.587 395.874 237.377 395.874 237.377H395.88Z" fill="white" fill-opacity="0.39"/>
<path d="M395.226 208.657C395.226 208.657 395.27 208.651 395.289 208.644C395.377 208.799 395.522 208.908 395.704 208.908C395.88 208.908 396.038 208.806 396.119 208.644H396.774V209.104C396.358 209.212 396.044 209.618 396.044 210.098C396.044 210.355 396.138 210.591 396.283 210.767C396.126 210.828 395.981 210.916 395.862 211.038C395.484 211.423 395.39 212.248 395.711 213.215C395.937 213.884 396.264 214.439 396.579 214.763C396.723 214.926 396.862 215 396.994 215H397.025C397.157 215 397.296 214.926 397.44 214.763C397.755 214.439 398.088 213.884 398.308 213.215C398.629 212.248 398.535 211.43 398.157 211.038C398.031 210.916 397.881 210.821 397.723 210.76C397.862 210.585 397.956 210.348 397.956 210.098C397.956 209.618 397.648 209.212 397.226 209.104V208.644H397.881C397.956 208.799 398.113 208.908 398.296 208.908C398.478 208.908 398.635 208.799 398.717 208.63C398.736 208.63 398.755 208.644 398.774 208.644C398.899 208.644 399 208.536 399 208.4C399 208.265 398.899 208.157 398.774 208.157C398.761 208.157 398.742 208.157 398.723 208.164C398.642 208.002 398.484 207.887 398.302 207.887C398.126 207.887 397.969 207.995 397.887 208.15H397.233V207.224C397.384 207.129 397.478 206.974 397.478 206.778C397.478 206.582 397.371 206.399 397.214 206.318C397.226 206.291 397.226 206.27 397.226 206.243C397.226 206.108 397.126 206 397 206C396.874 206 396.774 206.115 396.774 206.243C396.774 206.27 396.78 206.298 396.792 206.318C396.635 206.399 396.528 206.575 396.528 206.778C396.528 206.98 396.623 207.136 396.774 207.224V208.15H396.119C396.031 207.995 395.88 207.887 395.704 207.887C395.516 207.887 395.346 208.008 395.277 208.177C395.258 208.177 395.245 208.177 395.226 208.177C395.101 208.177 395 208.279 395 208.421C395 208.563 395.107 208.664 395.226 208.664V208.657Z" fill="white" fill-opacity="0.39"/>
<path d="M400.933 238.832C400.867 238.746 400.793 238.712 400.727 238.712C400.764 238.604 400.789 238.45 400.764 238.342C400.756 238.313 400.744 238.279 400.727 238.256C400.637 238.097 400.563 238.063 400.526 238.051C400.502 238.046 400.383 238.028 400.321 238.142L400.313 238C400.264 238.057 400.218 238.239 400.206 238.285C400.181 238.393 400.128 238.661 400.128 238.661C400.276 238.336 400.358 238.296 400.485 238.251C400.374 238.359 400.284 238.604 400.235 238.826L400.53 238.553L400.465 238.49C400.502 238.41 400.539 238.376 400.6 238.427C400.621 238.444 400.637 238.479 400.641 238.524C400.641 238.558 400.641 238.65 400.584 238.758L400.05 239.396C400.009 239.442 399.997 239.487 400.001 239.641C400.001 239.692 400.038 239.749 400.108 239.658L400.678 238.952C400.707 238.917 400.748 238.952 400.76 238.974C400.793 239.043 400.777 239.179 400.691 239.356L400.641 239.202C400.592 239.293 400.502 239.521 400.428 239.635C400.428 239.635 400.576 239.652 400.695 239.527C400.727 239.493 400.752 239.459 400.777 239.425C400.682 239.761 400.465 240 400.465 240C400.465 240 400.613 239.977 400.691 239.92C400.773 239.863 400.851 239.789 400.916 239.687L400.81 239.635C400.863 239.533 400.949 239.407 400.986 239.197C401.015 239.031 400.998 238.912 400.941 238.832H400.933Z" fill="white" fill-opacity="0.39"/>
<path d="M398.924 239.042L399 238.354L398.897 238.497C398.897 238.497 398.821 238.307 398.795 238.259C398.692 238.062 398.594 237.975 398.491 238.006C398.375 238.046 398.348 238.188 398.21 238.117C398.214 238.307 398.107 238.378 398.049 238.536C397.991 238.686 397.991 238.884 398.049 239.129C398.063 239.193 398.134 239.398 398.134 239.398L398 239.469L398.42 239.683C398.42 239.604 398.371 239.106 398.371 239.106L398.272 239.232C398.232 239.145 398.219 239.09 398.192 239.011C398.152 238.892 398.129 238.797 398.147 238.718C398.165 238.647 398.232 238.639 398.268 238.631L398.737 239.936C398.759 240.015 398.804 240.015 398.817 239.968C398.862 239.809 398.862 239.635 398.844 239.596L398.429 238.465C398.446 238.41 398.491 238.338 398.527 238.331C398.585 238.315 398.612 238.338 398.67 238.425C398.71 238.481 398.746 238.584 398.763 238.623L398.652 238.702C398.732 238.805 398.875 238.971 398.92 239.042H398.924Z" fill="white" fill-opacity="0.39"/>
<path d="M399.077 237.47C399.14 237.569 399.253 237.698 399.302 237.752C399.302 237.752 399.23 237.851 399.217 237.871C399.172 237.955 399.365 237.985 399.379 237.989C399.401 237.989 399.586 238.034 399.568 237.94C399.568 237.915 399.514 237.801 399.514 237.801C399.577 237.772 399.734 237.688 399.824 237.618C399.838 237.609 399.865 237.584 399.874 237.574C400.049 237.336 399.991 237.183 399.991 237.183L399.662 237.406C399.631 237.425 399.617 237.406 399.617 237.406C399.644 237.386 399.685 237.277 399.694 237.252C399.707 237.208 399.694 237.178 399.644 237.168C399.599 237.158 399.581 237.173 399.581 237.173C399.59 237.153 399.59 237.153 399.595 237.148C399.595 237.148 399.595 237.143 399.599 237.139C399.599 237.134 399.599 237.129 399.604 237.119C399.604 237.119 399.604 237.119 399.604 237.114C399.604 237.064 399.568 237.02 399.518 237.02C399.482 237.02 399.451 237.045 399.442 237.084C399.442 237.084 399.442 237.084 399.442 237.089C399.442 237.109 399.437 237.094 399.442 237.148C399.442 237.148 399.428 237.129 399.383 237.119C399.334 237.109 399.32 237.134 399.32 237.178C399.32 237.208 399.311 237.297 399.334 237.356C399.334 237.356 399.311 237.371 399.289 237.336L399.05 237C399.05 237 398.947 237.119 399.037 237.411C399.041 237.425 399.059 237.46 399.068 237.475L399.077 237.47Z" fill="white" fill-opacity="0.39"/>
<path d="M398.905 240.587C398.945 240.513 398.969 240.421 398.979 240.319L398.999 240.126C399.009 240.015 398.945 239.96 398.9 240.034L398.298 241.103L398.283 241.131C398.283 241.131 398.254 241.112 398.239 241.112C398.214 241.112 398.185 241.112 398.16 241.122C398.13 241.14 398.106 241.168 398.081 241.205C397.992 241.361 397.972 241.638 398.042 241.832C398.076 241.924 398.125 241.988 398.18 241.998C398.224 242.007 398.269 241.988 398.303 241.942C398.313 241.933 398.323 241.915 398.333 241.905C398.387 241.813 398.431 241.629 398.407 241.481L398.895 240.596L398.905 240.587ZM398.204 241.749C398.15 241.749 398.111 241.666 398.111 241.574C398.111 241.481 398.155 241.398 398.204 241.398C398.254 241.398 398.298 241.481 398.298 241.574C398.298 241.666 398.254 241.749 398.204 241.749Z" fill="white" fill-opacity="0.39"/>
<path d="M399.769 241.201C399.769 241.201 399.715 241.201 399.691 241.209L399.151 240.053C399.115 239.971 399.043 239.988 399.031 240.077L399.013 240.175C398.995 240.297 398.983 240.297 399.073 240.525L399.511 241.429C399.469 241.567 399.475 241.73 399.535 241.852C399.577 241.934 399.637 241.991 399.709 241.999C399.781 242.007 399.847 241.974 399.901 241.909C400.009 241.771 400.034 241.518 399.949 241.347C399.907 241.266 399.847 241.209 399.775 241.201H399.769ZM399.733 241.746C399.667 241.746 399.619 241.673 399.619 241.592C399.619 241.51 399.673 241.437 399.733 241.437C399.793 241.437 399.847 241.51 399.847 241.592C399.847 241.673 399.793 241.746 399.733 241.746Z" fill="white" fill-opacity="0.39"/>
<path d="M398.694 242.51C398.98 241.58 399.711 239.156 399.722 239.137C399.775 238.942 399.955 238.415 399.998 238.116C400.029 238.006 399.733 237.934 399.669 238.09C399.584 238.305 399.372 238.864 399.298 239.078C399.298 239.078 398.503 241.522 398.196 242.458C398.174 242.516 398.132 242.562 398.079 242.607C398.047 242.64 398.015 242.679 398.005 242.718C397.973 242.854 398.1 242.978 398.302 242.997C398.503 243.017 398.683 242.926 398.726 242.789C398.726 242.757 398.726 242.724 398.726 242.698C398.704 242.633 398.694 242.568 398.715 242.503L398.694 242.51Z" fill="white" fill-opacity="0.39"/>
<path d="M399.83 241.014L399.023 241.749C398.997 241.772 398.993 241.815 399.011 241.846L399.089 241.972C399.108 242.003 399.144 242.009 399.169 241.986L399.977 241.251C400.002 241.228 400.008 241.185 399.988 241.154L399.91 241.028C399.891 240.997 399.856 240.991 399.83 241.014Z" fill="white" fill-opacity="0.39"/>
<path d="M187 248L178.542 224H178.146H171.753H171.358L163 248H169.788L174.969 233.123L180.212 248H187Z" fill="white" fill-opacity="0.25"/>
<path d="M178 224H171.277L163 248H169.723L178 224Z" fill="url(#paint0_linear_35_7)"/>
<path d="M178 224H171.277L163 248H169.723L178 224Z" fill="url(#paint1_linear_35_7)"/>
<path d="M187 248L178.564 224H178.169L175 233.123L180.229 248H187Z" fill="url(#paint2_linear_35_7)"/>
<path d="M192 241H199.816L211 230H203.184L192 241Z" fill="white" fill-opacity="0.25"/>
<path d="M210.992 224L192 224V230L211 230L210.992 224Z" fill="white" fill-opacity="0.25"/>
<path d="M192.008 248L211 248V241L192 241L192.008 248Z" fill="white" fill-opacity="0.25"/>
<path d="M192 241H199.816L211 230H203.184L192 241Z" fill="url(#paint3_linear_35_7)"/>
<path d="M192 230V224L210.992 224L211 230L192 230Z" fill="url(#paint4_linear_35_7)"/>
<path d="M192 230V224L210.992 224L211 230L192 230Z" fill="url(#paint5_linear_35_7)"/>
<path d="M211 241V248L192.008 248L192 241L211 241Z" fill="url(#paint6_linear_35_7)"/>
<path d="M211 241V248L192.008 248L192 241L211 241Z" fill="url(#paint7_linear_35_7)"/>
<path d="M218 224V230.956V232.195V248H224V232.195V230.957V224H218Z" fill="white" fill-opacity="0.25"/>
<path d="M224 231H218V248H224V231Z" fill="url(#paint8_linear_35_7)"/>
<path d="M224 224H218L224 231V224Z" fill="url(#paint9_linear_35_7)"/>
<path d="M224 231L218 224V231H224Z" fill="url(#paint10_linear_35_7)"/>
<path d="M249 230.294V224L236.759 224L230 230.294V241.706L236.759 247.917V248L249 248V241.706L236.759 241.706V230.294L249 230.294Z" fill="white" fill-opacity="0.25"/>
<path d="M237 230.294V224L249 224V230.294L237 230.294ZM249 248V241.706L237 241.706V248L249 248Z" fill="url(#paint11_linear_35_7)"/>
<path d="M230 241.767L237 248V224L230 230.316V241.767Z" fill="url(#paint12_linear_35_7)"/>
<path d="M230 241.767L237 248V224L230 230.316V241.767Z" fill="url(#paint13_linear_35_7)"/>
<path d="M270.407 224L260.594 224H260.564V224.028L254 230.316V241.684L260.564 247.999H260.593L270.406 248L277 241.684V230.316L270.407 224ZM270.406 241.684L260.594 241.684V230.316L270.406 230.316V241.684Z" fill="white" fill-opacity="0.25"/>
<path d="M277 230L270.582 224L261 224V230L277 230Z" fill="url(#paint14_linear_35_7)"/>
<path d="M277 230L270.582 224L261 224V230L277 230Z" fill="url(#paint15_linear_35_7)"/>
<path d="M271 248V241L254 241L260.801 248L271 248Z" fill="url(#paint16_linear_35_7)"/>
<path d="M271 248V241L254 241L260.801 248L271 248Z" fill="url(#paint17_linear_35_7)"/>
<path d="M261 224L254 230.071V241H261V224Z" fill="url(#paint18_linear_35_7)"/>
<path d="M261 224L254 230.071V241H261V224Z" fill="url(#paint19_linear_35_7)"/>
<path d="M271 248L277 241.572V230H271V248Z" fill="url(#paint20_linear_35_7)"/>
<path d="M271 248L277 241.572V230H271V248Z" fill="url(#paint21_linear_35_7)"/>
<path d="M293.68 224L289.532 224L283 230.316V248H289.532V247.993L293.68 247.993C299.922 247.993 305 242.682 305 236.042C305 229.402 299.922 224 293.68 224ZM293.68 241.678L289.532 241.677V230.316L293.68 230.315C296.649 230.315 299.063 232.885 299.063 236.042C299.063 239.199 296.649 241.678 293.68 241.678Z" fill="white" fill-opacity="0.25"/>
<path d="M293.291 224L289.001 224V230.317L293.291 230.317C296.362 230.317 298.859 232.887 298.859 236.045C298.859 239.204 296.362 241.683 293.291 241.683L289 241.683V248L293.291 248C299.748 248 305 242.687 305 236.045C305 229.404 299.748 224 293.291 224Z" fill="url(#paint22_linear_35_7)"/>
<path d="M283 248H289V224L283 230.316V248Z" fill="url(#paint23_linear_35_7)"/>
<path d="M283 248H289V224L283 230.316V248Z" fill="url(#paint24_linear_35_7)"/>
<path d="M329 230.316V224L316.759 224L310 230.316V241.768L316.759 248L328.999 248V241.684L316.759 241.684V238.842L327.876 238.842V232.526L316.759 232.526V230.316L329 230.316Z" fill="white" fill-opacity="0.25"/>
<path d="M317 238.842V232.526L327.899 232.526V238.842L317 238.842ZM329 230.316V224L317 224V230.316L329 230.316ZM329 248V241.684L317 241.684V248L329 248Z" fill="url(#paint25_linear_35_7)"/>
<path d="M310 241.767L317 248V224L310 230.316V241.767Z" fill="url(#paint26_linear_35_7)"/>
<path d="M310 241.767L317 248V224L310 230.316V241.767Z" fill="url(#paint27_linear_35_7)"/>
<defs>
<linearGradient id="paint0_linear_35_7" x1="174.75" y1="224.098" x2="165.119" y2="247.205" gradientUnits="userSpaceOnUse">
<stop offset="0.22" stop-color="#231F20" stop-opacity="0"/>
<stop offset="0.47363" stop-color="#1E1A1B" stop-opacity="0.13006"/>
<stop offset="0.78476" stop-color="#0F0D0D" stop-opacity="0.28962"/>
<stop offset="1" stop-opacity="0.4"/>
</linearGradient>
<linearGradient id="paint1_linear_35_7" x1="174.75" y1="224.098" x2="165.119" y2="247.205" gradientUnits="userSpaceOnUse">
<stop stop-color="white" stop-opacity="0.4"/>
<stop offset="0.78" stop-color="white" stop-opacity="0"/>
</linearGradient>
<linearGradient id="paint2_linear_35_7" x1="183.423" y1="246.71" x2="174.195" y2="225.383" gradientUnits="userSpaceOnUse">
<stop stop-color="#231F20" stop-opacity="0"/>
<stop offset="0.32516" stop-color="#1E1A1B" stop-opacity="0.13006"/>
<stop offset="0.72405" stop-color="#0F0D0D" stop-opacity="0.28962"/>
<stop offset="1" stop-opacity="0.4"/>
</linearGradient>
<linearGradient id="paint3_linear_35_7" x1="201.5" y1="229.958" x2="201.5" y2="240.678" gradientUnits="userSpaceOnUse">
<stop stop-opacity="0.4"/>
<stop offset="0.04688" stop-color="#090808" stop-opacity="0.36254"/>
<stop offset="0.16092" stop-color="#181515" stop-opacity="0.27141"/>
<stop offset="0.29554" stop-color="#201D1E" stop-opacity="0.16384"/>
<stop offset="0.50058" stop-color="#231F20" stop-opacity="0"/>
<stop offset="1" stop-color="#231F20" stop-opacity="0.4"/>
</linearGradient>
<linearGradient id="paint4_linear_35_7" x1="202.18" y1="230.603" x2="201.117" y2="225.39" gradientUnits="userSpaceOnUse">
<stop stop-color="#231F20" stop-opacity="0.2"/>
<stop offset="0.01383" stop-color="#231F20" stop-opacity="0.19723"/>
<stop offset="1" stop-color="#231F20" stop-opacity="0"/>
</linearGradient>
<linearGradient id="paint5_linear_35_7" x1="202.18" y1="230.603" x2="201.117" y2="225.39" gradientUnits="userSpaceOnUse">
<stop stop-color="white" stop-opacity="0"/>
<stop offset="1" stop-color="white" stop-opacity="0.5"/>
</linearGradient>
<linearGradient id="paint6_linear_35_7" x1="200.475" y1="239.594" x2="202.592" y2="246.5" gradientUnits="userSpaceOnUse">
<stop stop-color="#231F20" stop-opacity="0.2"/>
<stop offset="0.01383" stop-color="#231F20" stop-opacity="0.19723"/>
<stop offset="1" stop-color="#231F20" stop-opacity="0"/>
</linearGradient>
<linearGradient id="paint7_linear_35_7" x1="200.475" y1="239.594" x2="202.592" y2="246.5" gradientUnits="userSpaceOnUse">
<stop stop-color="white" stop-opacity="0"/>
<stop offset="1" stop-color="white" stop-opacity="0.2"/>
</linearGradient>
<linearGradient id="paint8_linear_35_7" x1="221" y1="230.797" x2="221" y2="247.426" gradientUnits="userSpaceOnUse">
<stop stop-opacity="0.4"/>
<stop offset="0.27595" stop-color="#0F0D0D" stop-opacity="0.28962"/>
<stop offset="0.67484" stop-color="#1E1A1B" stop-opacity="0.13006"/>
<stop offset="1" stop-color="#231F20" stop-opacity="0"/>
</linearGradient>
<linearGradient id="paint9_linear_35_7" x1="219.392" y1="229.258" x2="223.205" y2="226.195" gradientUnits="userSpaceOnUse">
<stop stop-opacity="0.4"/>
<stop offset="0.27595" stop-color="#0F0D0D" stop-opacity="0.28962"/>
<stop offset="0.67484" stop-color="#1E1A1B" stop-opacity="0.13006"/>
<stop offset="1" stop-color="#231F20" stop-opacity="0"/>
</linearGradient>
<linearGradient id="paint10_linear_35_7" x1="221.084" y1="227.402" x2="217.431" y2="230.533" gradientUnits="userSpaceOnUse">
<stop stop-color="white" stop-opacity="0.5"/>
<stop offset="0.01383" stop-color="white" stop-opacity="0.49309"/>
<stop offset="1" stop-color="white" stop-opacity="0"/>
</linearGradient>
<linearGradient id="paint11_linear_35_7" x1="237" y1="236" x2="249" y2="236" gradientUnits="userSpaceOnUse">
<stop stop-opacity="0.4"/>
<stop offset="0.27595" stop-color="#0F0D0D" stop-opacity="0.28962"/>
<stop offset="0.67484" stop-color="#1E1A1B" stop-opacity="0.13006"/>
<stop offset="1" stop-color="#231F20" stop-opacity="0"/>
</linearGradient>
<linearGradient id="paint12_linear_35_7" x1="233.5" y1="226.489" x2="233.5" y2="245.883" gradientUnits="userSpaceOnUse">
<stop offset="0.22346" stop-color="#231F20" stop-opacity="0"/>
<stop offset="0.47596" stop-color="#1E1A1B" stop-opacity="0.09755"/>
<stop offset="0.78586" stop-color="#0F0D0D" stop-opacity="0.21727"/>
<stop offset="1" stop-opacity="0.3"/>
</linearGradient>
<linearGradient id="paint13_linear_35_7" x1="233.5" y1="226.489" x2="233.5" y2="245.883" gradientUnits="userSpaceOnUse">
<stop stop-color="white" stop-opacity="0.5"/>
<stop offset="0.01202" stop-color="white" stop-opacity="0.49309"/>
<stop offset="0.86929" stop-color="white" stop-opacity="0"/>
</linearGradient>
<linearGradient id="paint14_linear_35_7" x1="261" y1="227" x2="277" y2="227" gradientUnits="userSpaceOnUse">
<stop stop-opacity="0.4"/>
<stop offset="0.27595" stop-color="#0F0D0D" stop-opacity="0.28962"/>
<stop offset="0.67484" stop-color="#1E1A1B" stop-opacity="0.13006"/>
<stop offset="1" stop-color="#231F20" stop-opacity="0"/>
</linearGradient>
<linearGradient id="paint15_linear_35_7" x1="272.351" y1="227" x2="263.332" y2="227" gradientUnits="userSpaceOnUse">
<stop stop-color="white" stop-opacity="0.5"/>
<stop offset="0.01383" stop-color="white" stop-opacity="0.49309"/>
<stop offset="1" stop-color="white" stop-opacity="0"/>
</linearGradient>
<linearGradient id="paint16_linear_35_7" x1="254" y1="244.5" x2="271" y2="244.5" gradientUnits="userSpaceOnUse">
<stop stop-color="#231F20" stop-opacity="0"/>
<stop offset="0.32516" stop-color="#1E1A1B" stop-opacity="0.13006"/>
<stop offset="0.72405" stop-color="#0F0D0D" stop-opacity="0.28962"/>
<stop offset="1" stop-opacity="0.4"/>
</linearGradient>
<linearGradient id="paint17_linear_35_7" x1="254" y1="244.5" x2="271" y2="244.5" gradientUnits="userSpaceOnUse">
<stop stop-color="white" stop-opacity="0.5"/>
<stop offset="0.01383" stop-color="white" stop-opacity="0.49309"/>
<stop offset="1" stop-color="white" stop-opacity="0"/>
</linearGradient>
<linearGradient id="paint18_linear_35_7" x1="257.5" y1="247.23" x2="257.5" y2="223.845" gradientUnits="userSpaceOnUse">
<stop stop-color="white" stop-opacity="0"/>
<stop offset="0.98617" stop-color="white" stop-opacity="0.49309"/>
<stop offset="1" stop-color="white" stop-opacity="0.5"/>
</linearGradient>
<linearGradient id="paint19_linear_35_7" x1="257.5" y1="247.23" x2="257.5" y2="223.845" gradientUnits="userSpaceOnUse">
<stop stop-opacity="0.4"/>
<stop offset="0.27595" stop-color="#0F0D0D" stop-opacity="0.28962"/>
<stop offset="0.67484" stop-color="#1E1A1B" stop-opacity="0.13006"/>
<stop offset="1" stop-color="#231F20" stop-opacity="0"/>
</linearGradient>
<linearGradient id="paint20_linear_35_7" x1="274" y1="223.72" x2="274" y2="247.754" gradientUnits="userSpaceOnUse">
<stop stop-color="white" stop-opacity="0"/>
<stop offset="0.98617" stop-color="white" stop-opacity="0.49309"/>
<stop offset="1" stop-color="white" stop-opacity="0.5"/>
</linearGradient>
<linearGradient id="paint21_linear_35_7" x1="274" y1="223.72" x2="274" y2="247.754" gradientUnits="userSpaceOnUse">
<stop stop-opacity="0.4"/>
<stop offset="0.27595" stop-color="#0F0D0D" stop-opacity="0.28962"/>
<stop offset="0.67484" stop-color="#1E1A1B" stop-opacity="0.13006"/>
<stop offset="1" stop-color="#231F20" stop-opacity="0"/>
</linearGradient>
<linearGradient id="paint22_linear_35_7" x1="289" y1="236" x2="305" y2="236" gradientUnits="userSpaceOnUse">
<stop stop-opacity="0.4"/>
<stop offset="0.27595" stop-color="#0F0D0D" stop-opacity="0.28962"/>
<stop offset="0.67484" stop-color="#1E1A1B" stop-opacity="0.13006"/>
<stop offset="1" stop-color="#231F20" stop-opacity="0"/>
</linearGradient>
<linearGradient id="paint23_linear_35_7" x1="286" y1="248" x2="286" y2="224" gradientUnits="userSpaceOnUse">
<stop stop-opacity="0.3"/>
<stop offset="0.21414" stop-color="#0F0D0D" stop-opacity="0.21727"/>
<stop offset="0.52404" stop-color="#1E1A1B" stop-opacity="0.09755"/>
<stop offset="0.77654" stop-color="#231F20" stop-opacity="0"/>
</linearGradient>
<linearGradient id="paint24_linear_35_7" x1="286" y1="248" x2="286" y2="224" gradientUnits="userSpaceOnUse">
<stop offset="0.18736" stop-color="white" stop-opacity="0"/>
<stop offset="0.98876" stop-color="white" stop-opacity="0.49309"/>
<stop offset="1" stop-color="white" stop-opacity="0.5"/>
</linearGradient>
<linearGradient id="paint25_linear_35_7" x1="317" y1="236" x2="329" y2="236" gradientUnits="userSpaceOnUse">
<stop stop-opacity="0.4"/>
<stop offset="0.27595" stop-color="#0F0D0D" stop-opacity="0.28962"/>
<stop offset="0.67484" stop-color="#1E1A1B" stop-opacity="0.13006"/>
<stop offset="1" stop-color="#231F20" stop-opacity="0"/>
</linearGradient>
<linearGradient id="paint26_linear_35_7" x1="313.5" y1="248" x2="313.5" y2="224" gradientUnits="userSpaceOnUse">
<stop stop-opacity="0.3"/>
<stop offset="0.21414" stop-color="#0F0D0D" stop-opacity="0.21727"/>
<stop offset="0.52404" stop-color="#1E1A1B" stop-opacity="0.09755"/>
<stop offset="0.77654" stop-color="#231F20" stop-opacity="0"/>
</linearGradient>
<linearGradient id="paint27_linear_35_7" x1="313.5" y1="248" x2="313.5" y2="224" gradientUnits="userSpaceOnUse">
<stop offset="0.23363" stop-color="white" stop-opacity="0"/>
<stop offset="0.9894" stop-color="white" stop-opacity="0.49309"/>
<stop offset="1" stop-color="white" stop-opacity="0.5"/>
</linearGradient>
<clipPath id="clip0_35_7">
<rect width="162" height="112" fill="white" transform="translate(51 37)"/>
</clipPath>
</defs>
</svg>
