<svg width="712" height="280" viewBox="0 0 712 280" fill="none" xmlns="http://www.w3.org/2000/svg">
<rect width="712" height="280" fill="black"/>
<path d="M240.5 178V105H262.2C267.133 105 271.4 105.933 275 107.8C278.667 109.667 281.5 112.3 283.5 115.7C285.5 119.1 286.5 123.133 286.5 127.8V155.1C286.5 159.7 285.5 163.733 283.5 167.2C281.5 170.6 278.667 173.267 275 175.2C271.4 177.067 267.133 178 262.2 178H240.5ZM253 166.5H262.2C265.8 166.5 268.667 165.5 270.8 163.5C272.933 161.433 274 158.633 274 155.1V127.8C274 124.333 272.933 121.6 270.8 119.6C268.667 117.533 265.8 116.5 262.2 116.5H253V166.5ZM323.061 179C318.394 179 314.328 178.1 310.861 176.3C307.394 174.5 304.694 172 302.761 168.8C300.894 165.533 299.961 161.733 299.961 157.4V143.6C299.961 139.267 300.894 135.5 302.761 132.3C304.694 129.033 307.394 126.5 310.861 124.7C314.328 122.9 318.394 122 323.061 122C327.661 122 331.661 122.9 335.061 124.7C338.528 126.5 341.194 129.033 343.061 132.3C344.994 135.5 345.961 139.267 345.961 143.6V153.5H312.061V157.4C312.061 161.267 312.994 164.2 314.861 166.2C316.728 168.133 319.494 169.1 323.161 169.1C325.961 169.1 328.228 168.633 329.961 167.7C331.694 166.7 332.794 165.267 333.261 163.4H345.561C344.628 168.133 342.094 171.933 337.961 174.8C333.894 177.6 328.928 179 323.061 179ZM333.861 146.5V143.5C333.861 139.7 332.961 136.8 331.161 134.8C329.361 132.733 326.661 131.7 323.061 131.7C319.461 131.7 316.728 132.733 314.861 134.8C312.994 136.867 312.061 139.8 312.061 143.6V145.7L334.761 145.5L333.861 146.5ZM374.922 178L356.822 123H369.622L380.122 156.4C380.722 158.4 381.289 160.467 381.822 162.6C382.422 164.733 382.855 166.433 383.122 167.7C383.455 166.433 383.889 164.733 384.422 162.6C384.955 160.467 385.489 158.433 386.022 156.5L396.322 123H409.022L391.022 178H374.922ZM420.383 178V105H442.083C447.016 105 451.283 105.933 454.883 107.8C458.549 109.667 461.383 112.3 463.383 115.7C465.383 119.1 466.383 123.133 466.383 127.8V155.1C466.383 159.7 465.383 163.733 463.383 167.2C461.383 170.6 458.549 173.267 454.883 175.2C451.283 177.067 447.016 178 442.083 178H420.383ZM432.883 166.5H442.083C445.683 166.5 448.549 165.5 450.683 163.5C452.816 161.433 453.883 158.633 453.883 155.1V127.8C453.883 124.333 452.816 121.6 450.683 119.6C448.549 117.533 445.683 116.5 442.083 116.5H432.883V166.5ZM502.844 179C495.844 179 490.344 177.067 486.344 173.2C482.344 169.267 480.344 163.933 480.344 157.2V123H492.844V157.1C492.844 160.633 493.71 163.367 495.444 165.3C497.177 167.167 499.644 168.1 502.844 168.1C505.977 168.1 508.41 167.167 510.144 165.3C511.944 163.367 512.844 160.633 512.844 157.1V123H525.344V157.2C525.344 163.933 523.31 169.267 519.244 173.2C515.177 177.067 509.71 179 502.844 179ZM562.905 179C558.238 179 554.171 178.1 550.705 176.3C547.238 174.5 544.538 172 542.605 168.8C540.738 165.533 539.805 161.733 539.805 157.4V143.6C539.805 139.267 540.738 135.5 542.605 132.3C544.538 129.033 547.238 126.5 550.705 124.7C554.171 122.9 558.238 122 562.905 122C567.505 122 571.505 122.9 574.905 124.7C578.371 126.5 581.038 129.033 582.905 132.3C584.838 135.5 585.805 139.267 585.805 143.6V153.5H551.905V157.4C551.905 161.267 552.838 164.2 554.705 166.2C556.571 168.133 559.338 169.1 563.005 169.1C565.805 169.1 568.071 168.633 569.805 167.7C571.538 166.7 572.638 165.267 573.105 163.4H585.405C584.471 168.133 581.938 171.933 577.805 174.8C573.738 177.6 568.771 179 562.905 179ZM573.705 146.5V143.5C573.705 139.7 572.805 136.8 571.005 134.8C569.205 132.733 566.505 131.7 562.905 131.7C559.305 131.7 556.571 132.733 554.705 134.8C552.838 136.867 551.905 139.8 551.905 143.6V145.7L574.605 145.5L573.705 146.5ZM631.166 178C627.566 178 624.399 177.267 621.666 175.8C618.999 174.333 616.899 172.267 615.366 169.6C613.832 166.867 613.066 163.733 613.066 160.2V116.3H595.466V105H625.566V160.2C625.566 162.2 626.132 163.8 627.266 165C628.466 166.133 630.066 166.7 632.066 166.7H648.666V178H631.166Z" fill="white"/>
<g clip-path="url(#clip0_35_7)">
<path d="M83.5476 123.509C83.5476 119.543 84.3242 116.037 85.8773 112.991C87.4304 110.016 89.6189 107.749 92.4427 106.191C95.1959 104.633 98.5139 103.96 102.397 104.172L118.493 105.235C121.387 105.447 123.575 104.845 125.058 103.429C126.541 102.083 127.282 99.7808 127.282 96.5225V83.879H139.46V96.5225C139.46 99.7808 140.201 102.083 141.683 103.429C143.166 104.845 145.319 105.447 148.143 105.235L164.768 104.172C168.58 103.96 171.863 104.633 174.616 106.191C177.37 107.749 179.487 110.016 180.97 112.991C182.453 116.037 183.194 119.543 183.194 123.509V130.841H171.016V125.422C171.016 122.872 170.416 120.853 169.216 119.366C168.016 117.949 166.11 117.312 163.497 117.453L146.978 118.516C142.813 118.799 139.46 117.56 136.918 114.797C134.377 112.035 133.106 108.174 133.106 103.216H133.847C133.847 108.104 132.541 111.928 129.929 114.691C127.388 117.524 123.999 118.799 119.763 118.516L103.244 117.453C100.914 117.383 99.0787 118.055 97.7374 119.472C96.4667 120.96 95.8313 122.943 95.8313 125.422V130.841H83.5476V123.509Z" fill="#83D6C5"/>
<path d="M136.483 162.181H190.165V178.192C190.165 181.832 189.478 184.98 188.106 187.636C186.734 190.341 184.797 192.432 182.297 193.907C179.796 195.383 176.83 196.121 173.399 196.121H153.323C149.94 196.121 146.974 195.383 144.425 193.907C141.925 192.432 139.964 190.341 138.542 187.636C137.169 184.98 136.483 181.832 136.483 178.192V162.181ZM144.94 171.404V178.192C144.94 180.848 145.675 182.963 147.146 184.537C148.666 186.111 150.725 186.898 153.323 186.898H173.399C175.948 186.898 177.958 186.111 179.429 184.537C180.948 182.963 181.708 180.848 181.708 178.192V171.404H144.94Z" fill="#83D6C5"/>
<path d="M76.1821 162.181H129.864V178.192C129.864 181.832 129.178 184.98 127.805 187.636C126.433 190.341 124.496 192.432 121.996 193.907C119.496 195.383 116.53 196.121 113.098 196.121H93.0222C89.6395 196.121 86.6734 195.383 84.1242 193.907C81.6239 192.432 79.6629 190.341 78.2412 187.636C76.8685 184.98 76.1821 181.832 76.1821 178.192V162.181ZM84.6389 171.404V178.192C84.6389 180.848 85.3743 182.963 86.8451 184.537C88.3648 186.111 90.4238 186.898 93.0222 186.898H113.098C115.647 186.898 117.657 186.111 119.128 184.537C120.648 182.963 121.408 180.848 121.408 178.192V171.404H84.6389Z" fill="#83D6C5"/>
<path d="M212.962 138.939H51.1794V150.744H212.962V138.939Z" fill="#83D6C5"/>
<path d="M173.772 174.877L163.476 185.206" stroke="white"/>
<path d="M163.476 173.401L153.181 183.731" stroke="white"/>
<path d="M113.471 174.877L103.176 185.206" stroke="white"/>
<path d="M103.176 173.401L92.8804 183.731" stroke="white"/>
</g>
<defs>
<clipPath id="clip0_35_7">
<rect width="162" height="112" fill="white" transform="translate(51 84)"/>
</clipPath>
</defs>
</svg>
