<svg width="65" height="80" viewBox="0 0 65 80" fill="none" xmlns="http://www.w3.org/2000/svg">
<path d="M25.5123 12.66C25.5323 12.72 25.5623 12.77 25.5823 12.82C25.9923 13.69 26.7323 14.52 26.7323 14.52C26.7323 14.52 26.7323 14.52 26.7423 14.52C26.7423 14.52 26.8523 14.44 27.0623 14.32C27.1323 14.28 27.2223 14.23 27.3223 14.18C27.5623 14.06 27.8623 13.93 28.2423 13.79C29.1423 13.47 30.3323 13.37 30.3323 13.37C30.3323 13.37 29.2223 11.82 29.0123 9.57998C28.8923 8.30998 28.9423 7.64998 28.9523 7.60998C28.8723 7.60998 28.8023 7.59998 28.7223 7.59998C27.8723 7.59998 27.1023 7.89998 26.4923 8.38998C26.4723 8.39998 26.4623 8.40998 26.4423 8.42998C25.6523 9.07998 25.1523 10.07 25.1523 11.17C25.1523 11.48 25.1923 11.77 25.2723 12.06C25.3323 12.24 25.4123 12.47 25.4923 12.67L25.5123 12.66Z" fill="white"/>
<path d="M46.9622 23.5099C47.3222 24.0899 47.3122 24.8099 47.3122 24.8099C47.3122 24.8099 48.0522 24.9399 48.4122 25.2999C48.4122 25.2999 48.4722 25.2399 48.4722 25.2299C48.9622 24.6199 49.8722 23.6299 50.1422 22.1799C50.3522 20.9999 50.2222 19.3499 49.9722 18.8299C49.9722 18.8099 49.9522 18.7799 49.9422 18.7699C50.1822 18.4999 50.5722 17.8599 51.6422 17.8599C52.0422 17.8599 52.3922 17.9699 52.6822 18.0999C53.1522 18.3299 53.4422 18.6299 53.4422 18.6299C53.4422 18.6299 52.5122 20.2899 52.0222 21.0699C51.7722 21.4699 51.5922 21.7899 51.0922 22.8899C50.6722 23.8099 50.5622 24.4199 50.6322 25.0799C50.6922 25.6299 50.9822 26.6899 51.1122 27.7499C51.3522 29.7899 50.9522 30.7799 50.9522 30.7799C50.9522 30.7799 50.9622 30.7799 50.9722 30.7599V30.7799C50.9722 30.7799 53.3922 29.1799 54.9122 25.6199C54.9122 25.6199 54.9022 25.6199 54.8922 25.6199C54.6122 25.5699 54.3822 25.4899 54.1822 25.3899C53.9822 25.2899 53.8022 25.1599 53.6122 25.0199C52.2622 23.9899 52.5622 22.8899 53.0022 22.3699C53.1322 22.2199 53.2522 22.0799 53.3922 21.9399C53.7322 21.5799 54.1022 21.2099 54.4822 20.7599C54.9722 20.1899 55.1422 19.6199 55.2122 19.1199C55.2322 18.9499 55.2622 18.7699 55.2622 18.5999C55.2622 17.0999 54.5322 16.0799 53.6122 15.5699C53.3022 15.3999 52.9722 15.2799 52.6422 15.2299C51.6022 15.0499 50.3422 15.4399 49.4122 16.0699C49.0622 16.3099 48.4722 16.8399 48.3122 17.2499C48.1122 18.2599 48.4122 18.5199 48.7222 19.5599C48.7222 19.5799 48.7422 19.5999 48.7522 19.6199C49.3922 21.9399 49.0622 23.0699 46.9622 23.5099Z" fill="white"/>
<path d="M36.5922 21.4399C36.8622 22.0199 37.3622 22.5799 37.3622 22.5799L37.4322 22.6499C37.4322 22.6499 37.7022 22.4099 38.4222 22.1299C39.0122 21.8999 39.7722 21.8199 39.7722 21.8199C39.7722 21.8199 39.0222 20.7799 38.8822 19.2899C38.8022 18.4199 38.8322 17.9699 38.8422 17.9699C38.8422 17.9699 38.8322 17.9699 38.8222 17.9699C38.4422 17.8999 38.0522 17.9699 37.6922 18.1399C37.4422 18.2799 37.2222 18.4299 37.0422 18.5999C36.7222 18.8899 36.5022 19.2099 36.4222 19.5499C36.2922 19.9199 36.2422 20.3199 36.3222 20.7399C36.3222 20.7799 36.4622 21.2099 36.5722 21.4499L36.5922 21.4399Z" fill="white"/>
<path d="M39.8922 19.9C40.2122 20.8 40.7522 21.55 41.1622 21.71C41.2222 21.74 41.2822 21.75 41.3422 21.75C41.7722 21.7 42.3322 20.84 42.6022 19.79C42.8622 18.81 42.6822 17.98 42.2522 17.63C42.1522 17.56 42.0422 17.49 41.9322 17.44C41.9122 17.44 41.8922 17.43 41.8722 17.42C42.0822 17.23 42.2322 16.96 42.2322 16.65C42.2322 16.17 41.9222 15.78 41.4822 15.66V15.24H42.1922V14.66H41.4822V13.75H40.9022V14.66H40.1822V15.24H40.9022V15.66C40.4722 15.78 40.1622 16.17 40.1622 16.65C40.1622 16.95 40.2922 17.23 40.5122 17.42C40.3422 17.5 40.1822 17.6 40.0422 17.72C39.6422 18.1 39.5422 18.94 39.8822 19.9H39.8922Z" fill="white"/>
<path d="M42.8022 21.7399C42.8022 21.7399 44.0722 21.7399 45.3422 22.2499C45.3622 22.2499 45.3822 22.2699 45.4022 22.2799C45.5722 22.0599 45.8222 21.7199 45.9822 21.3699C46.0922 21.1299 46.2222 20.6999 46.2322 20.6599C46.3122 20.2399 46.2622 19.8399 46.1322 19.4699C46.0522 19.1299 45.8322 18.8099 45.5122 18.5199C45.3322 18.3599 45.1122 18.1999 44.8622 18.0599C44.5022 17.8899 44.1122 17.8199 43.7322 17.8799C43.7322 17.8799 43.7722 18.3399 43.6922 19.1999C43.5522 20.6999 42.8022 21.7299 42.8022 21.7299C42.8022 21.7299 42.8122 21.7299 42.8222 21.7299L42.8022 21.7399Z" fill="white"/>
<path d="M34.5322 13.36C34.5322 13.36 35.7222 13.46 36.6222 13.78C37.0022 13.91 37.3122 14.05 37.5422 14.17C37.6422 14.22 37.7222 14.27 37.8022 14.31C38.0222 14.43 38.1222 14.51 38.1222 14.51H38.1322C38.1322 14.51 38.8822 13.67 39.2822 12.81C39.3022 12.76 39.3322 12.71 39.3522 12.65C39.4322 12.45 39.5122 12.22 39.5722 12.04C39.6422 11.76 39.6922 11.46 39.6922 11.15C39.6922 10.05 39.1922 9.05996 38.4022 8.40996C38.3922 8.39996 38.3722 8.38996 38.3522 8.36996C37.7422 7.87996 36.9622 7.57996 36.1222 7.57996C36.0422 7.57996 35.9722 7.57996 35.8922 7.58996C35.9022 7.62996 35.9522 8.28996 35.8322 9.55996C35.6222 11.8 34.5122 13.35 34.5122 13.35L34.5322 13.36Z" fill="white"/>
<path d="M35.3224 16.7999C35.3224 16.7999 35.4624 17.4999 35.5424 17.8099H35.6324C36.1624 17.5999 37.2024 17.2799 37.2024 16.9399V15.8299C37.2024 15.6299 37.0024 15.4399 36.6424 15.2699C35.9124 14.9299 34.5324 14.6899 32.9624 14.6599H32.0524C30.4324 14.6699 28.9824 14.9199 28.2324 15.2699C27.8724 15.4399 27.6624 15.6299 27.6624 15.8299V16.9399C27.6624 17.2899 28.7124 17.5999 29.2424 17.8099H29.3324C29.4124 17.4999 29.5624 16.7999 29.5624 16.7999C29.5624 16.7999 29.4524 16.7499 29.4224 16.7099C29.3624 16.5699 29.4724 16.4899 29.6724 16.3799C29.8724 16.2699 30.1924 16.2099 30.4624 16.1999C30.6324 16.8099 30.6524 17.7699 30.6224 18.5899C30.5524 20.2399 30.2424 22.3199 29.2624 23.7299C29.6324 24.0899 30.0424 24.5599 30.4624 25.1599C31.4724 23.2099 31.6324 21.0799 31.7224 18.8899C31.7624 17.9199 31.7224 16.7899 31.7224 16.0199C31.8124 16.0199 32.1324 15.9799 32.4424 15.9799C32.7524 15.9799 33.0624 16.0199 33.1624 16.0199C33.1624 16.7899 33.1224 17.9199 33.1624 18.8899C33.2524 21.1199 33.4124 23.2899 34.4724 25.2599C34.8624 24.6999 35.2324 24.2399 35.5924 23.8799C35.6224 23.8499 35.6424 23.8099 35.6624 23.7799C34.6524 22.3699 34.3324 20.2599 34.2624 18.5899C34.2224 17.7699 34.2524 16.8099 34.4224 16.1999C34.6924 16.2099 35.0224 16.2699 35.2124 16.3799C35.4124 16.4899 35.5224 16.5699 35.4624 16.7099C35.4424 16.7599 35.3224 16.7999 35.3224 16.7999Z" fill="white"/>
<path d="M49.0022 32.4C49.0022 32.4 49.0022 32.4 48.9922 32.4C48.9722 32.4 48.9622 32.4 48.9422 32.4H48.9122C48.8522 32.4 48.8022 32.41 48.7422 32.42C48.1622 32.46 47.6022 32.42 47.1322 32.23C46.8722 32.14 46.6422 31.99 46.4222 31.84C46.3722 31.8 45.7822 31.28 45.6722 31.18C45.2422 30.78 44.4322 30.19 43.6022 30.11C42.6622 30.02 42.0622 30.36 41.3822 30.63C41.3222 30.66 41.2722 30.72 41.2622 30.79C41.2622 30.87 41.3022 30.94 41.3722 30.97C41.3922 30.98 41.4222 30.99 41.4522 30.99C42.1222 31.04 42.7622 31.15 43.3622 31.33C43.8122 31.47 44.2522 31.61 44.6022 31.86C45.0622 32.19 45.4622 32.61 45.7322 32.78C46.0722 33 46.3822 33.21 46.7822 33.29C47.2022 33.36 47.6322 33.33 48.0322 33.23C48.0522 33.23 48.0722 33.22 48.0822 33.21C48.1922 33.18 48.2922 33.14 48.3922 33.1C48.5322 33.04 48.6722 32.98 48.8022 32.91C48.8022 32.91 48.8122 32.91 48.8222 32.91C48.9022 32.86 48.9922 32.82 49.0722 32.76C49.1222 32.72 49.1522 32.66 49.1422 32.6C49.1422 32.52 49.0722 32.45 48.9922 32.44L49.0022 32.4Z" fill="white"/>
<path d="M46.4122 26.17C46.4522 26.3 46.5922 26.45 46.7522 26.54C47.2522 26.83 47.4322 27.26 46.6822 27.35C46.1322 27.41 45.5622 27.05 43.5322 27.61C42.3422 27.94 40.9422 29.14 40.4522 29.69C40.3022 29.86 40.1422 30.06 40.0022 30.27C39.5322 30.95 39.5322 31.86 40.0422 32.52C40.3422 32.91 40.6822 33.16 40.7822 33.23C42.5622 34.44 44.2322 33.44 44.4222 33.25C44.5722 33.1 44.5822 33.05 44.5522 33.01C44.5522 33.01 44.5522 33.01 44.5422 33.01C44.5422 33.01 43.9722 33.31 43.1822 33.31C42.7322 33.31 42.2722 33.23 41.8922 33.06C41.6122 32.93 40.9722 32.59 40.5922 31.98C40.3422 31.59 40.4022 31.08 40.6922 30.72C40.9922 30.36 41.3522 30.02 41.6922 29.77C42.4522 29.21 43.3322 28.87 44.3522 28.85C44.3722 28.85 44.4022 28.85 44.4222 28.85C44.9322 28.85 45.4222 28.94 45.8822 29.09C46.1122 29.17 46.3422 29.26 46.5522 29.37C47.2022 29.7 47.7722 30.18 48.2022 30.77C48.2022 30.77 48.2022 30.77 48.2122 30.78C48.3822 30.5 48.5622 30.07 48.7222 29.48C48.7522 29.38 48.7822 29.27 48.8022 29.15C49.0322 28.15 48.9622 25.83 46.7622 25.83C46.7222 25.83 46.6822 25.85 46.6422 25.86C46.4122 25.92 46.3522 26.05 46.3922 26.18L46.4122 26.17Z" fill="white"/>
<path d="M10.1924 20.77C10.5824 21.22 10.9424 21.59 11.2824 21.95C11.4124 22.09 11.5424 22.24 11.6724 22.38C12.1124 22.9 12.4124 24 11.0624 25.03C10.8724 25.17 10.6924 25.3 10.4924 25.4C10.2924 25.5 10.0624 25.58 9.78235 25.63C9.78235 25.63 9.77235 25.63 9.76235 25.63C11.2924 29.19 13.7024 30.79 13.7024 30.79V30.77C13.7124 30.77 13.7224 30.79 13.7224 30.79C13.7224 30.79 13.3224 29.79 13.5624 27.76C13.6924 26.7 13.9824 25.64 14.0424 25.09C14.1124 24.43 14.0024 23.82 13.5824 22.9C13.0824 21.8 12.9024 21.48 12.6524 21.08C12.1624 20.29 11.2324 18.64 11.2324 18.64C11.2324 18.64 11.5224 18.34 11.9924 18.11C12.2824 17.97 12.6324 17.87 13.0324 17.87C14.1124 17.87 14.5024 18.5 14.7324 18.78C14.7324 18.8 14.7124 18.82 14.7024 18.84C14.4524 19.37 14.3124 21.02 14.5324 22.19C14.7924 23.64 15.7024 24.63 16.2024 25.24C16.2024 25.25 16.2624 25.31 16.2624 25.31C16.6224 24.95 17.3524 24.82 17.3624 24.82C17.3624 24.82 17.3424 24.1 17.7124 23.52C15.6224 23.08 15.2924 21.95 15.9224 19.63C15.9224 19.61 15.9424 19.59 15.9524 19.57C16.2624 18.53 16.5624 18.27 16.3624 17.26C16.2024 16.86 15.6124 16.32 15.2624 16.08C14.3324 15.45 13.0724 15.06 12.0324 15.24C11.7024 15.3 11.3724 15.41 11.0624 15.58C10.1324 16.09 9.41235 17.11 9.41235 18.61C9.41235 18.79 9.43235 18.96 9.46235 19.13C9.52235 19.63 9.70235 20.2 10.1924 20.77Z" fill="white"/>
<path d="M24.9023 21.82C24.9023 21.82 25.6623 21.9 26.2523 22.13C26.9723 22.41 27.2423 22.65 27.2423 22.65L27.3123 22.58C27.3123 22.58 27.8123 22.02 28.0823 21.44C28.1923 21.2 28.3223 20.77 28.3323 20.73C28.4123 20.31 28.3623 19.91 28.2323 19.54C28.1523 19.2 27.9323 18.88 27.6123 18.59C27.4323 18.43 27.2123 18.27 26.9623 18.13C26.6023 17.96 26.2123 17.89 25.8323 17.95C25.8323 17.95 25.8223 17.95 25.8123 17.95C25.8123 17.95 25.8523 18.41 25.7723 19.27C25.6323 20.77 24.8823 21.8 24.8823 21.8L24.9023 21.82Z" fill="white"/>
<path d="M23.3423 21.75C23.4023 21.75 23.4623 21.73 23.5223 21.71C23.9323 21.55 24.4723 20.8 24.7923 19.9C25.1323 18.94 25.0323 18.1 24.6323 17.72C24.4923 17.6 24.3323 17.5 24.1523 17.43C24.3723 17.24 24.5123 16.97 24.5123 16.66C24.5123 16.18 24.2023 15.79 23.7623 15.67V15.25H24.4723V14.67H23.7623V13.76H23.1823V14.67H22.4623V15.25H23.1823V15.67C22.7523 15.79 22.4423 16.18 22.4423 16.66C22.4423 16.97 22.5823 17.24 22.8023 17.43C22.7823 17.43 22.7623 17.44 22.7523 17.45C22.6423 17.5 22.5323 17.56 22.4323 17.64C22.0023 17.99 21.8323 18.81 22.0823 19.8C22.3523 20.85 22.9223 21.71 23.3423 21.76V21.75Z" fill="white"/>
<path d="M18.7024 21.3599C18.8624 21.7099 19.1124 22.0499 19.2824 22.2699C19.3024 22.2599 19.3224 22.2499 19.3424 22.2399C20.6124 21.7399 21.8824 21.7299 21.8824 21.7299H21.9024C21.9024 21.7299 21.1524 20.6899 21.0124 19.1999C20.9324 18.3299 20.9724 17.8799 20.9724 17.8799C20.5924 17.8199 20.2024 17.8899 19.8424 18.0599C19.5924 18.1999 19.3724 18.3499 19.1924 18.5199C18.8724 18.8099 18.6524 19.1299 18.5724 19.4699C18.4424 19.8399 18.3924 20.2399 18.4724 20.6599C18.4724 20.6999 18.6124 21.1299 18.7224 21.3699L18.7024 21.3599Z" fill="white"/>
<path d="M23.2322 30.97C23.2322 30.97 23.2822 30.96 23.3122 30.95C23.3822 30.92 23.4222 30.85 23.4222 30.77C23.4222 30.7 23.3722 30.64 23.3022 30.61C22.6222 30.34 22.0222 30 21.0822 30.09C20.2422 30.17 19.4422 30.76 19.0122 31.16C18.9022 31.26 18.3122 31.78 18.2622 31.82C18.0422 31.98 17.8122 32.13 17.5522 32.21C17.0822 32.39 16.5222 32.44 15.9422 32.4C15.8922 32.4 15.8322 32.39 15.7722 32.38H15.7422C15.7422 32.38 15.7122 32.38 15.6922 32.38C15.6922 32.38 15.6922 32.38 15.6822 32.38C15.6022 32.39 15.5422 32.46 15.5322 32.54C15.5322 32.6 15.5522 32.67 15.6022 32.7C15.6822 32.76 15.7622 32.8 15.8522 32.85C15.8522 32.85 15.8622 32.85 15.8722 32.85C16.0022 32.92 16.1322 32.99 16.2822 33.04C16.3822 33.08 16.4922 33.12 16.5922 33.15C16.6122 33.15 16.6322 33.16 16.6422 33.17C17.0522 33.28 17.4822 33.3 17.8922 33.23C18.2922 33.15 18.5922 32.94 18.9422 32.72C19.2122 32.55 19.6122 32.13 20.0722 31.8C20.4222 31.55 20.8722 31.41 21.3122 31.27C21.9122 31.09 22.5522 30.98 23.2222 30.93L23.2322 30.97Z" fill="white"/>
<path d="M15.8523 29.1399C15.8823 29.2599 15.9023 29.3599 15.9323 29.4699C16.0923 30.0699 16.2823 30.4899 16.4423 30.7699C16.4423 30.7699 16.4423 30.7699 16.4523 30.7599C16.8823 30.1699 17.4523 29.6899 18.1023 29.3599C18.3223 29.2499 18.5423 29.1599 18.7723 29.0799C19.2323 28.9299 19.7223 28.8399 20.2323 28.8399C20.2523 28.8399 20.2823 28.8399 20.3023 28.8399C21.3223 28.8599 22.2023 29.1999 22.9623 29.7599C23.3023 30.0099 23.6623 30.3499 23.9623 30.7099C24.2623 31.0699 24.3123 31.5799 24.0623 31.9699C23.6823 32.5799 23.0423 32.9199 22.7623 33.0499C22.3823 33.2199 21.9223 33.2999 21.4723 33.2999C20.6823 33.2999 20.1223 32.9999 20.1123 32.9999C20.1123 32.9999 20.1123 32.9999 20.1023 32.9999C20.0723 33.0399 20.0823 33.0999 20.2323 33.2399C20.4123 33.4199 22.0823 34.4199 23.8723 33.2199C23.9723 33.1499 24.3123 32.8999 24.6123 32.5099C25.1223 31.8599 25.1223 30.9399 24.6523 30.2599C24.5123 30.0499 24.3523 29.8499 24.2023 29.6799C23.7123 29.1299 22.3123 27.9299 21.1223 27.5999C19.0923 27.0399 18.5223 27.4099 17.9723 27.3399C17.2223 27.2499 17.4023 26.8199 17.9023 26.5299C18.0623 26.4399 18.2023 26.2999 18.2423 26.1599C18.2823 26.0299 18.2323 25.8999 17.9923 25.8399C17.9523 25.8399 17.9123 25.8099 17.8723 25.8099C15.6723 25.8099 15.6023 28.1299 15.8323 29.1299L15.8523 29.1399Z" fill="white"/>
<path d="M42.6724 63.14V63.16C42.6724 63.16 42.6824 63.16 42.6924 63.16C42.6924 63.16 42.6924 63.14 42.6724 63.14Z" fill="white"/>
<path d="M33.5923 40.6699C33.6623 40.8199 33.9523 41.0499 34.0223 41.4999C34.0223 41.5499 35.1323 40.3299 35.1323 40.3299V39.1599L33.9523 39.6599L33.5923 40.6799V40.6699Z" fill="white"/>
<path d="M26.3921 71.42C26.9221 71.28 27.4121 71.11 27.9321 70.91C28.1921 70.81 28.4421 70.7 28.7021 70.57C28.9621 70.44 29.2121 70.29 29.4621 70.12C29.7021 69.95 29.9321 69.73 30.1221 69.49C30.2221 69.37 30.3021 69.24 30.3721 69.09C30.4021 69.02 30.4421 68.94 30.4621 68.87L30.5121 68.68C30.5421 68.53 30.4621 68.39 30.3221 68.36C30.2721 68.35 30.2121 68.36 30.1621 68.37C30.1121 68.38 30.0721 68.41 30.0421 68.45C29.8821 68.64 29.7121 68.77 29.5221 68.87C29.3421 68.97 29.1421 69.04 28.9321 69.1C28.5021 69.23 28.0321 69.29 27.5421 69.35C27.0621 69.41 26.5421 69.46 26.0721 69.51C25.5921 69.55 25.1121 69.58 24.6221 69.59L23.1021 69.64C22.5721 69.67 22.0221 69.7 21.3921 69.84C21.1521 69.9 20.8921 69.97 20.6221 70.1C20.5321 70.14 20.4421 70.19 20.3521 70.24C20.0021 70.46 19.6621 70.81 19.4921 71.22C19.3121 71.63 19.2921 72.03 19.3621 72.37C19.4421 72.72 19.5821 73.01 19.8321 73.27C19.9321 73.37 20.0821 73.4 20.2021 73.34C20.2421 73.32 20.3521 73.23 20.3521 73.23C20.7921 72.52 21.7321 72.14 21.9121 72.1C22.6721 71.92 23.7521 71.88 24.8021 71.72C25.3321 71.64 25.8721 71.54 26.4021 71.4L26.3921 71.42Z" fill="white"/>
<path d="M21.6123 68.49C21.6123 68.63 21.7123 68.75 21.8523 68.76C21.9123 68.76 21.9623 68.75 22.0123 68.72L22.0923 68.66C22.2123 68.58 22.3323 68.51 22.4623 68.45C22.8423 68.28 23.2123 68.22 23.5923 68.21C24.1023 68.19 24.6223 68.26 25.2223 68.36C25.8723 68.48 26.5923 68.53 27.3023 68.47C27.6623 68.44 28.0223 68.37 28.3923 68.27C28.5723 68.21 28.7623 68.15 28.9523 68.05C28.9523 68.05 28.9523 68.05 28.9623 68.05C29.1323 67.95 29.3823 67.83 29.5023 67.56C29.5523 67.46 29.5023 67.33 29.4023 67.28C29.3823 67.28 29.3723 67.27 29.3523 67.26C29.3523 67.26 28.6323 67.13 28.3423 67.04L27.4323 66.81C26.8023 66.66 26.2123 66.52 25.5423 66.41C24.8323 66.29 23.9823 66.29 23.2023 66.6C23.1023 66.64 23.0023 66.68 22.9123 66.73C22.2423 67.07 21.6623 67.7 21.6123 68.49Z" fill="white"/>
<path d="M22.6422 65.96C22.6422 65.96 23.0922 65.8 23.2922 65.74C23.2922 65.74 20.8222 64.84 22.2322 63.25V63.19C21.9922 63.16 21.7522 63.19 21.5422 63.27C21.3222 63.36 21.1322 63.5 20.9722 63.7C20.3022 64.53 21.2222 65.44 21.2422 65.45C21.1022 65.44 20.7722 65.39 20.6322 65.38C20.0322 64.97 19.0422 63.96 20.4622 61.83C20.4222 61.83 20.3922 61.83 20.3522 61.83C20.1422 61.83 19.9422 61.86 19.7522 61.94C19.6422 61.98 19.5322 62.02 19.4322 62.07C18.7322 62.41 18.2522 63.07 18.2522 63.84C18.2522 64.15 18.3422 64.45 18.4822 64.71C18.5822 64.9 18.7222 65.07 18.8822 65.23C18.7722 65.23 18.3222 65.19 18.2122 65.16C17.5622 64.41 16.8422 63.01 18.2322 61.37C18.1922 61.37 18.1622 61.37 18.1222 61.37C17.9122 61.37 17.7122 61.4 17.5222 61.48C17.3922 61.53 17.2822 61.58 17.1722 61.64C16.4022 62.08 16.0322 62.92 16.0322 63.61C16.0322 63.92 16.1422 64.43 16.2622 64.71C17.1722 66.94 21.4822 66.26 22.6422 65.97V65.96Z" fill="white"/>
<path d="M44.5422 70.2599C44.4522 70.1999 44.3622 70.1599 44.2722 70.1199C44.0022 69.9899 43.7422 69.9199 43.5022 69.8599C42.8722 69.7099 42.3222 69.6899 41.7922 69.6599L40.2722 69.6099C39.7822 69.5899 39.2922 69.5699 38.8222 69.5299C38.3522 69.4799 37.8322 69.4299 37.3522 69.3699C36.8722 69.3099 36.3922 69.2399 35.9622 69.1199C35.7522 69.0499 35.5522 68.9799 35.3722 68.8899C35.1822 68.7899 35.0122 68.6599 34.8522 68.4699C34.8222 68.4299 34.7822 68.4099 34.7322 68.3899C34.6822 68.3699 34.6322 68.3599 34.5722 68.3799C34.4322 68.4099 34.3522 68.5599 34.3822 68.6999L34.4322 68.8999C34.4522 68.9699 34.4922 69.0499 34.5222 69.1199C34.5922 69.2599 34.6722 69.3899 34.7722 69.5199C34.9622 69.7599 35.1922 69.9799 35.4322 70.1499C35.6822 70.3199 35.9322 70.4699 36.1922 70.5999C36.4422 70.7299 36.7022 70.8399 36.9622 70.9399C37.4822 71.1399 37.9622 71.2999 38.5022 71.4499C39.0422 71.5899 39.5722 71.6899 40.1022 71.7699C41.1522 71.9199 42.2322 71.9699 42.9922 72.1499C43.1722 72.1899 44.1122 72.5699 44.5522 73.2799C44.5522 73.2799 44.6622 73.3699 44.7022 73.3899C44.8222 73.4399 44.9722 73.4199 45.0722 73.3199C45.3222 73.0599 45.4622 72.7599 45.5422 72.4199C45.6122 72.0799 45.5922 71.6699 45.4122 71.2699C45.2422 70.8599 44.8922 70.5099 44.5522 70.2899L44.5422 70.2599Z" fill="white"/>
<path d="M35.9122 68.05C35.9122 68.05 35.9122 68.05 35.9222 68.05C36.1122 68.15 36.3022 68.21 36.4822 68.27C36.8522 68.37 37.2122 68.44 37.5722 68.47C38.2822 68.53 39.0122 68.47 39.6522 68.36C40.2522 68.25 40.7722 68.19 41.2822 68.21C41.6522 68.21 42.0322 68.28 42.4122 68.45C42.5322 68.51 42.6522 68.57 42.7822 68.66L42.8622 68.71H42.8722C42.8722 68.71 42.9722 68.76 43.0322 68.76C43.1722 68.76 43.2822 68.63 43.2722 68.49C43.2222 67.7 42.6422 67.08 41.9722 66.73C41.8722 66.68 41.7822 66.63 41.6822 66.6C40.8922 66.29 40.0522 66.29 39.3422 66.41C38.6722 66.52 38.0822 66.66 37.4522 66.81L36.5422 67.04C36.2522 67.12 35.5322 67.26 35.5322 67.26C35.5122 67.26 35.5022 67.26 35.4822 67.28C35.3822 67.33 35.3322 67.45 35.3822 67.56C35.5022 67.83 35.7522 67.96 35.9222 68.05H35.9122Z" fill="white"/>
<path d="M47.7123 61.6299C47.6023 61.5699 47.4823 61.5099 47.3623 61.4699C47.1723 61.3899 46.9723 61.3499 46.7623 61.3599C46.7223 61.3599 46.6923 61.3599 46.6523 61.3599C48.0423 62.9999 47.3223 64.3999 46.6723 65.1499C46.5623 65.1799 46.1123 65.2099 46.0023 65.2199C46.1623 65.0699 46.3023 64.8999 46.4023 64.6999C46.5423 64.4399 46.6323 64.1399 46.6323 63.8299C46.6323 63.0599 46.1523 62.3999 45.4523 62.0599C45.3523 62.0099 45.2423 61.9699 45.1323 61.9299C44.9423 61.8499 44.7423 61.8099 44.5323 61.8199C44.4923 61.8199 44.4623 61.8199 44.4223 61.8199C45.8423 63.9499 44.8523 64.9599 44.2523 65.3699C44.1123 65.3799 43.7823 65.4299 43.6423 65.4399C43.6623 65.4199 44.5923 64.5199 43.9123 63.6899C43.7523 63.4899 43.5623 63.3499 43.3423 63.2599C43.1223 63.1699 42.8823 63.1499 42.6523 63.1799C42.6523 63.1799 42.6523 63.1899 42.6423 63.1799V63.2399C44.0523 64.8299 41.5823 65.7299 41.5823 65.7299C41.7823 65.7999 42.2023 65.9499 42.2323 65.9599C43.3923 66.2499 47.7023 66.9299 48.6123 64.6999C48.7223 64.4199 48.8423 63.9099 48.8423 63.5999C48.8423 62.9099 48.4623 62.0699 47.7023 61.6299H47.7123Z" fill="white"/>
<path d="M39.6824 47.7399C39.2324 46.9199 38.6124 46.3899 37.8524 46.2699C37.4424 46.2099 37.0324 46.2699 36.6224 46.4499L36.5424 46.4799C36.2324 46.6199 35.9324 46.8199 35.6424 47.0699C34.4624 48.0999 33.4524 50.0099 33.0324 52.2899C32.6324 54.4699 32.8624 56.4899 33.5424 57.8199C33.9924 58.7099 34.6424 59.2999 35.4324 59.4199C36.2124 59.5399 37.0224 59.1899 37.7524 58.5099C38.8824 57.4599 39.8424 55.5999 40.2424 53.3999C40.6524 51.1499 40.3924 49.0599 39.6624 47.7299L39.6824 47.7399ZM34.3024 51.6199C34.7524 49.8999 35.4624 48.9499 35.4624 48.9499C35.8624 48.3599 36.3224 47.9299 36.7824 47.6999C37.1524 47.4899 37.6224 47.4699 38.0924 47.6799C38.3324 47.7899 38.5424 47.9599 38.7024 48.1599C38.7324 48.2099 38.7524 48.2399 38.7824 48.2799C38.8124 48.3399 38.8424 48.3999 38.8724 48.4599C39.0324 48.7799 39.1424 49.1199 39.2224 49.5099C39.2224 49.5599 39.2424 49.5999 39.2424 49.6499C39.4124 50.8399 39.4024 51.0099 39.3924 52.2499C39.3924 52.3199 39.3624 52.7899 39.3524 52.8599C39.2924 53.3299 39.1124 54.3099 38.5624 55.6199C38.4024 56.1299 38.0224 56.5999 38.0324 56.6099C37.3924 57.6999 36.3924 58.3499 35.7024 58.2699C35.1924 58.2099 34.9024 57.9199 34.7324 57.7299C34.2524 57.1899 34.2124 56.8899 34.1424 56.6499C33.9824 56.1399 34.0024 55.8799 33.9824 55.6099C33.8524 54.2699 34.0024 53.2799 34.1524 52.3799C34.1724 52.2599 34.2324 51.9599 34.2724 51.7599C34.2724 51.7599 34.2824 51.6899 34.3024 51.6299" fill="white"/>
<path d="M34.3923 51.59C34.4023 51.54 34.4123 51.49 34.4223 51.46Z" fill="white"/>
<path d="M64.7422 41.38C64.6822 41.18 64.5422 41.02 64.3722 40.94C64.2022 40.85 64.0022 40.82 63.8022 40.88H63.7722C62.9222 41.14 62.0222 41.41 61.1422 41.61C60.7022 41.72 60.2622 41.82 59.8322 41.92C59.3922 42.01 58.9622 42.09 58.4922 42.15C57.5722 42.27 56.6522 42.38 55.7222 42.46C55.1322 42.51 54.5222 42.55 53.9322 42.58C54.0122 42.56 54.1022 42.54 54.1922 42.51C54.4522 42.44 54.7022 42.37 54.9522 42.29C55.4522 42.13 55.9422 41.97 56.4222 41.79C57.3922 41.44 58.3322 41.05 59.2622 40.64C60.2022 40.24 61.1822 39.78 62.0522 39.22C62.9222 38.64 63.7522 38.04 64.5122 37.29C64.7522 37.06 64.8122 36.69 64.6322 36.39C64.5522 36.25 64.4422 36.15 64.3122 36.09C64.0922 35.98 63.8322 35.98 63.6122 36.11L63.5822 36.13C62.7722 36.6 61.9122 37.08 61.0622 37.49C60.2022 37.91 59.3722 38.32 58.4522 38.63C57.5322 38.95 56.6022 39.25 55.6722 39.51C55.2122 39.64 54.7422 39.76 54.2822 39.87L53.9722 39.94C54.2022 39.84 54.4322 39.74 54.6522 39.63C55.1622 39.38 55.6422 39.12 56.1122 38.85C57.0622 38.31 57.9622 37.72 58.8422 37.12C59.7522 36.51 60.6522 35.84 61.4422 35.09C62.2322 34.32 62.9522 33.52 63.5822 32.59C63.7722 32.31 63.7522 31.93 63.5122 31.68C63.4422 31.6 63.3622 31.54 63.2722 31.5C63.0122 31.37 62.6822 31.41 62.4522 31.62L62.4222 31.64C61.6922 32.3 60.9122 32.98 60.1222 33.58C59.3222 34.19 58.5422 34.79 57.6722 35.29C57.5122 35.39 57.3422 35.47 57.1822 35.57C56.4522 35.98 55.7222 36.38 54.9822 36.74C54.8422 36.81 54.6922 36.87 54.5522 36.94C54.2822 37.06 54.0122 37.18 53.7422 37.29C53.7922 37.26 53.8422 37.22 53.8922 37.19C54.2122 36.97 54.5122 36.73 54.8022 36.5C54.9622 36.37 55.1222 36.24 55.2822 36.11C56.1522 35.37 56.9622 34.59 57.7322 33.8C57.7322 33.79 57.7522 33.78 57.7622 33.77C58.5822 32.93 59.3522 32.07 60.0022 31.12C60.6422 30.16 61.2222 29.19 61.6722 28.09C61.8022 27.78 61.7022 27.41 61.4122 27.21C61.4122 27.21 61.4122 27.21 61.4022 27.21C61.0722 26.97 60.6022 27.05 60.3722 27.39L60.3522 27.42C59.7622 28.26 59.1022 29.13 58.4122 29.93C58.2022 30.17 58.0022 30.41 57.7922 30.65C57.3022 31.2 56.8022 31.74 56.2622 32.22C55.9922 32.46 55.7122 32.69 55.4422 32.92C54.9422 33.34 54.4422 33.75 53.9222 34.13C54.0022 34.03 54.0822 33.92 54.1622 33.82C54.5822 33.24 54.9822 32.64 55.3522 32.05C55.6122 31.64 55.8622 31.22 56.1122 30.8C56.5422 30.07 56.9422 29.33 57.2822 28.57C57.4322 28.23 57.5822 27.88 57.7122 27.53C58.1222 26.38 58.4522 25.25 58.6322 24.01C58.6822 23.67 58.4822 23.33 58.1522 23.21C58.1522 23.21 58.1522 23.21 58.1422 23.21C57.7622 23.07 57.3322 23.27 57.2022 23.66V23.7C56.8822 24.58 56.5022 25.48 56.0922 26.35C56.0322 26.49 55.9722 26.63 55.9022 26.77C55.4422 27.72 54.9622 28.64 54.4022 29.52C54.3722 29.57 54.3422 29.63 54.3022 29.68C53.8822 30.3 53.4422 30.89 52.9922 31.48C51.6122 33.02 49.2822 34.56 48.0222 35.17C47.4122 35.47 46.7822 35.88 46.1522 36.18C46.1522 36.18 46.1322 36.19 46.1222 36.19C45.7022 36.4 45.3322 36.72 45.1222 37.14C45.0722 37.25 45.0222 37.36 44.9822 37.47C44.9122 37.67 44.8722 37.89 44.8722 38.11C44.8722 38.92 45.3122 39.69 45.9722 40.03C46.1922 40.15 46.4322 40.22 46.6922 40.23C46.7322 40.23 46.7722 40.23 46.8122 40.23C47.0422 40.21 47.1622 40.11 47.1622 40.11C47.1622 40.11 46.9822 39.64 47.2522 39.42C47.2922 39.39 47.3422 39.37 47.3922 39.34C47.5122 39.28 47.6522 39.25 47.8022 39.25C47.9422 39.25 48.0722 39.28 48.1822 39.33C48.5322 39.48 48.7822 39.83 48.7822 40.24C48.7822 40.74 48.4022 41.16 47.9222 41.22C47.7022 41.31 47.2822 41.32 47.0122 41.32C46.4522 41.32 45.9122 41.26 45.3822 41.16C44.6522 41.03 43.9622 40.8 43.3122 40.5C42.5222 40.14 41.0822 39.08 41.1022 39.02C39.6122 37.64 38.6722 35.74 38.5922 33.64C38.5922 33.54 38.5722 33.45 38.5722 33.35C38.5722 33.05 38.5922 32.72 38.6322 32.43C38.6922 31.91 38.8122 31.4 38.9722 30.91C39.2622 30.03 39.7022 29.21 40.2622 28.5C40.3122 28.43 40.5722 28.15 40.9022 27.83C40.9222 27.81 40.9422 27.79 40.9622 27.77C40.9622 27.77 40.9622 27.77 40.9722 27.76C41.3322 27.4 41.7722 27 42.1522 26.76C42.1222 26.74 42.0822 26.71 42.0422 26.67C41.9922 26.62 41.9422 26.57 41.9222 26.54C41.2422 26.47 40.9922 26.15 40.8822 25.87C40.8822 25.87 40.8822 25.85 40.8822 25.84C40.8822 25.82 40.8622 25.79 40.8522 25.77C40.8122 25.67 40.8222 25.36 40.8322 25.31C40.8822 25.06 41.0322 24.81 41.1622 24.68C41.2222 24.61 41.2922 24.55 41.3522 24.5C41.5622 24.34 41.7922 24.25 42.0422 24.21C42.1022 24.2 42.1622 24.19 42.2322 24.18H42.2522C42.8922 24.11 43.5122 24.39 43.7722 25.04L43.3722 25.14C43.2422 24.86 43.0222 24.74 42.7722 24.76C42.6922 24.76 42.6022 24.79 42.5022 24.82C42.4422 24.84 42.3922 24.87 42.3522 24.91C41.9422 25.26 42.3022 26.14 42.8722 26.2C42.9622 26.2 43.0522 26.2 43.1522 26.16C43.1522 26.16 43.1522 26.16 43.1622 26.16C43.4122 26.06 44.9922 25.68 45.9422 25.53C46.1222 25.5 46.2822 25.48 46.4122 25.47C46.4122 25.47 46.4122 25.47 46.4222 25.47C46.5822 25.2 46.5922 23.45 45.2122 22.88C44.1222 22.43 43.1722 22.36 42.3122 22.35C41.5322 22.35 40.8322 22.43 40.1022 22.59C37.2922 23.21 35.5822 24.83 34.0222 28.36C32.9622 30.44 32.5822 32.44 32.4322 32.99C32.4322 32.99 32.3722 32.99 32.2722 32.99C32.1122 32.4 31.7322 30.42 30.6922 28.36C29.1222 24.84 27.4122 23.21 24.6022 22.59C23.8822 22.43 23.1622 22.35 22.3822 22.35C21.5222 22.35 20.5822 22.42 19.4822 22.88C18.1022 23.45 18.1122 25.2 18.2722 25.47C18.2722 25.47 18.2722 25.47 18.2822 25.47C18.4022 25.47 18.5622 25.5 18.7522 25.53C19.7022 25.68 21.2822 26.06 21.5322 26.16C21.5322 26.16 21.5322 26.16 21.5422 26.16C21.6422 26.2 21.7322 26.21 21.8222 26.2C22.4422 26.13 22.8222 25.07 22.1922 24.82C22.1022 24.78 22.0122 24.76 21.9222 24.76C21.6722 24.74 21.4522 24.86 21.3222 25.14C21.3222 25.14 20.9322 25.07 20.9122 25.04C21.1622 24.38 21.7922 24.11 22.4322 24.18H22.4522C22.5122 24.18 22.5822 24.2 22.6422 24.21C22.9722 24.27 23.2822 24.41 23.5322 24.69C23.6622 24.81 23.8122 25.06 23.8622 25.32C23.8722 25.36 23.8722 25.68 23.8422 25.78C23.8422 25.8 23.8222 25.82 23.8122 25.85C23.8122 25.85 23.8122 25.87 23.8122 25.88C23.7022 26.16 23.4522 26.48 22.7722 26.55C22.7422 26.58 22.6922 26.63 22.6522 26.68C22.6122 26.72 22.5722 26.76 22.5422 26.77C22.9422 27.03 23.4122 27.47 23.7922 27.84C24.1222 28.17 24.3722 28.45 24.4322 28.52C24.9922 29.23 25.4322 30.05 25.7222 30.93C25.8822 31.42 26.0022 31.93 26.0622 32.45C26.0922 32.74 26.1222 33.08 26.1222 33.38C26.1222 33.48 26.1122 33.58 26.1022 33.67C26.1022 33.85 26.0822 34.02 26.0622 34.19C25.8722 35.07 25.4822 36.5 24.7522 37.71C24.7122 37.76 24.6822 37.82 24.6422 37.87H24.6522C24.3722 38.3 24.0522 38.7 23.6722 39.03C23.6922 39.09 22.2522 40.15 21.4622 40.51C20.8122 40.81 20.1222 41.04 19.3922 41.17C18.8622 41.27 18.3222 41.33 17.7622 41.33C17.4922 41.33 17.0722 41.32 16.8522 41.23C16.3622 41.16 15.9922 40.75 15.9922 40.25C15.9922 39.84 16.2422 39.49 16.5922 39.34C16.7122 39.29 16.8422 39.26 16.9722 39.26C17.1222 39.26 17.2522 39.29 17.3822 39.35C17.4322 39.37 17.4822 39.4 17.5222 39.43C17.7922 39.64 17.6122 40.12 17.6122 40.12C17.6122 40.12 17.7422 40.22 17.9622 40.24C18.0022 40.24 18.0322 40.25 18.0822 40.24C18.3422 40.24 18.5922 40.16 18.8022 40.04C19.4622 39.69 19.9022 38.92 19.9022 38.12C19.9022 37.89 19.8622 37.68 19.7922 37.48C19.7522 37.37 19.7122 37.25 19.6522 37.15C19.4422 36.73 19.0722 36.4 18.6522 36.2C18.6522 36.2 18.6322 36.19 18.6222 36.19C17.9922 35.88 17.3722 35.47 16.7522 35.18C15.4922 34.57 13.1622 33.03 11.7822 31.49C11.3322 30.91 10.8922 30.31 10.4722 29.69C10.4422 29.64 10.4122 29.59 10.3722 29.53C9.81222 28.66 9.33222 27.73 8.87222 26.78C8.80222 26.64 8.75222 26.5 8.68222 26.36C8.27222 25.49 7.90222 24.58 7.59222 23.71V23.67C7.44222 23.29 7.02222 23.08 6.63222 23.22C6.63222 23.22 6.63222 23.22 6.62222 23.22C6.28222 23.34 6.09222 23.68 6.14222 24.02C6.31222 25.26 6.65222 26.4 7.06222 27.54C7.19222 27.89 7.33222 28.24 7.49222 28.58C7.83222 29.34 8.23222 30.09 8.66222 30.81C8.91222 31.23 9.16222 31.65 9.42222 32.06C9.79222 32.66 10.1922 33.25 10.6122 33.83C10.6922 33.93 10.7722 34.04 10.8522 34.14C10.3422 33.76 9.83222 33.35 9.33222 32.93C9.05222 32.7 8.78222 32.47 8.51222 32.23C7.97222 31.75 7.47222 31.21 6.98222 30.66C6.77222 30.42 6.57222 30.18 6.36222 29.94C5.67222 29.14 5.02222 28.27 4.42222 27.43L4.40222 27.4C4.17222 27.07 3.70222 26.99 3.37222 27.22C3.37222 27.22 3.37222 27.22 3.36222 27.22C3.07222 27.42 2.97222 27.79 3.10222 28.1C3.55222 29.2 4.13222 30.17 4.77222 31.13C5.42222 32.08 6.19222 32.94 7.01222 33.78C7.01222 33.78 7.03222 33.8 7.04222 33.81C7.82222 34.6 8.62222 35.38 9.49222 36.12C9.65222 36.25 9.81222 36.38 9.97222 36.51C10.2622 36.75 10.5622 36.98 10.8822 37.2C10.9322 37.23 10.9822 37.27 11.0322 37.3C10.7622 37.19 10.4922 37.07 10.2222 36.95C10.0822 36.88 9.93222 36.82 9.79222 36.75C9.05222 36.39 8.32222 36 7.59222 35.58C7.43222 35.49 7.26222 35.4 7.10222 35.3C6.23222 34.8 5.45222 34.2 4.65222 33.59C3.85222 32.99 3.07222 32.31 2.35222 31.65L2.32222 31.63C2.09222 31.42 1.77222 31.39 1.50222 31.51C1.41222 31.55 1.33222 31.61 1.26222 31.69C1.03222 31.95 1.01222 32.33 1.19222 32.6C1.82222 33.54 2.55222 34.33 3.33222 35.1C4.12222 35.86 5.02222 36.52 5.93222 37.13C6.81222 37.74 7.72222 38.32 8.66222 38.86C9.13222 39.13 9.62222 39.39 10.1222 39.64C10.3422 39.75 10.5722 39.85 10.8022 39.95L10.4922 39.88C10.0322 39.77 9.56222 39.65 9.10222 39.52C8.17222 39.26 7.24222 38.96 6.32222 38.64C5.40222 38.33 4.58222 37.92 3.71222 37.5C2.85222 37.09 2.00222 36.61 1.19222 36.14L1.16222 36.12C0.942219 35.99 0.672219 35.99 0.462219 36.1C0.332219 36.16 0.212219 36.26 0.142219 36.4C-0.0277813 36.7 0.0322188 37.07 0.262219 37.3C1.03222 38.05 1.85222 38.65 2.72222 39.23C3.59222 39.79 4.57222 40.25 5.51222 40.65C6.45222 41.06 7.39222 41.45 8.35222 41.8C8.83222 41.98 9.32222 42.14 9.82222 42.3C10.0722 42.38 10.3222 42.45 10.5822 42.52C10.6722 42.54 10.7522 42.57 10.8422 42.59C10.2522 42.56 9.65222 42.52 9.05222 42.47C8.13222 42.39 7.20222 42.29 6.28222 42.16C5.81222 42.1 5.38222 42.02 4.94222 41.93C4.50222 41.83 4.07222 41.73 3.63222 41.62C2.75222 41.42 1.86222 41.15 1.00222 40.89H0.972219C0.772219 40.82 0.572219 40.85 0.402219 40.94C0.232219 41.03 0.0922188 41.18 0.0322188 41.38C-0.0677812 41.71 0.0722189 42.05 0.352219 42.22C1.21222 42.75 2.10222 43.14 3.02222 43.5C3.93222 43.85 4.95222 44.07 5.88222 44.27C6.82222 44.47 7.77222 44.66 8.72222 44.82C9.58222 44.96 10.4122 45.09 11.3122 45.18C10.7722 45.25 10.2222 45.31 9.67222 45.36C8.79222 45.45 7.91222 45.52 7.03222 45.58C6.81222 45.6 6.59222 45.6 6.37222 45.61H5.74222L4.46222 45.6C3.60222 45.6 2.72222 45.53 1.87222 45.48H1.84222C1.69222 45.48 1.54222 45.51 1.42222 45.58C1.21222 45.7 1.06222 45.92 1.05222 46.18C1.03222 46.52 1.24222 46.82 1.55222 46.92C2.46222 47.23 3.35222 47.42 4.28222 47.57C4.74222 47.64 5.21222 47.68 5.68222 47.7C5.92222 47.71 6.15222 47.72 6.39222 47.72H7.07222C7.98222 47.75 8.89222 47.75 9.80222 47.74C10.4322 47.74 10.5722 47.74 11.2022 47.71L11.2822 47.99C10.2422 48.32 9.53222 48.53 8.48222 48.82C7.66222 49.05 6.89222 49.2 6.08222 49.37C5.28222 49.55 4.45222 49.69 3.65222 49.86H3.63222C3.58222 49.88 3.52222 49.89 3.47222 49.92C3.15222 50.05 2.96222 50.4 3.03222 50.75C3.10222 51.08 3.37222 51.31 3.69222 51.34C4.58222 51.42 5.45222 51.4 6.33222 51.34C7.21222 51.28 8.10222 51.08 8.93222 50.93C9.77222 50.77 11.0122 50.48 11.8522 50.31L11.9222 50.52C11.5722 50.72 10.8222 51.12 10.4722 51.31C10.1222 51.5 9.78222 51.68 9.43222 51.85C9.09222 52.02 8.74222 52.18 8.39222 52.36C8.39222 52.36 8.39222 52.36 8.38222 52.36C7.68222 52.72 6.96222 53.06 6.27222 53.44H6.26222C5.90222 53.64 5.76222 54.09 5.96222 54.46C6.12222 54.75 6.44222 54.9 6.75222 54.84C7.57222 54.68 8.35222 54.45 9.14222 54.2C9.92222 53.94 10.6822 53.58 11.4222 53.25C11.6222 53.16 12.4022 52.83 12.5922 52.74L12.7222 53.36C12.6022 53.44 12.1622 53.75 12.1622 53.75L11.3022 54.49C10.7322 54.99 10.2122 55.55 9.71222 56.13C9.44222 56.45 9.48222 56.92 9.79222 57.19C10.0322 57.39 10.3622 57.42 10.6222 57.28C10.6222 57.28 10.6222 57.28 10.6322 57.28C11.3222 56.92 11.9722 56.52 12.5922 56.08L13.2422 55.7C13.2422 55.7 13.6022 57.86 13.6922 58.75C13.9822 61.53 13.9022 64.72 14.2022 65.09C14.4522 65.4 14.9522 65.33 15.3922 65.34C15.3622 65.23 15.3522 65.14 15.3222 65.03C15.3222 65.02 15.3222 65.01 15.3222 65C15.0022 63.51 15.4422 62.42 15.7222 61.97V61.95C15.7222 61.95 15.7522 61.85 15.7522 61.83C15.6522 60.07 15.4222 57.22 15.0222 55.01C14.3822 51.49 13.3222 45.84 13.0122 44.24C12.9922 44.15 13.0322 44.06 13.0922 44C13.1622 43.94 13.2522 43.91 13.3522 43.94C14.4322 44.21 16.2122 44.37 17.3522 44.45C18.2122 44.51 20.2522 44.5 22.3622 43.85C21.4722 45.96 20.9622 48.37 20.9622 50.94C20.9622 55.97 22.9122 60.42 25.8922 63.09C25.5422 63.15 25.2822 63.2 25.2022 63.22C24.4322 63.49 23.8322 63.88 23.5022 64.07C23.5022 64.07 23.4922 64.08 23.4822 64.09C23.4622 64.1 23.4322 64.11 23.4122 64.12C23.2922 64.18 23.2922 64.32 23.3122 64.45C23.3922 64.81 23.5922 65.27 23.7922 65.54C23.8322 65.6 23.8822 65.66 23.9522 65.66C26.7322 65.8 28.7822 66.01 30.4222 67.05C30.4222 67.05 30.4322 67.05 30.4422 67.06C30.4922 67.09 30.5322 67.12 30.5722 67.15C31.3422 67.76 31.6622 69.02 31.0222 69.92C30.8022 70.14 30.5822 70.36 30.3522 70.57C29.5922 71.23 28.7622 71.79 27.8922 72.21C27.0222 72.63 26.1122 72.9 25.1922 73.03C24.2622 73.2 23.3422 73.32 22.1322 73.61C22.1322 73.61 22.0522 73.64 22.0222 73.66C21.9222 73.73 21.8622 73.85 21.8922 73.97C21.9022 74.02 21.9322 74.07 21.9622 74.1C22.8522 75.06 24.1622 75.44 25.4322 75.37C26.3922 75.3 27.3222 75.02 28.1722 74.61C28.4522 74.47 28.7322 74.33 28.9922 74.16C30.0422 73.51 30.9522 72.66 31.6322 71.66C31.6422 71.64 31.6622 71.62 31.6722 71.6C31.6722 71.61 31.6722 71.62 31.6722 71.63C31.5122 72.17 31.0022 73.59 30.5922 74.06C30.1722 74.54 29.7922 75 29.3522 75.36C29.0222 75.63 28.6822 75.86 28.2922 76.05C28.1622 76.11 28.0322 76.17 27.9022 76.23C27.3522 76.46 26.7122 76.61 25.9622 76.77C25.9622 76.77 25.8922 76.8 25.8622 76.82C25.7622 76.88 25.7122 76.99 25.7322 77.11C25.7522 77.18 25.7822 77.24 25.8422 77.28C26.5122 77.75 27.3522 77.98 28.2222 77.92C28.6622 77.89 29.1022 77.79 29.5222 77.62C29.9322 77.45 30.3222 77.22 30.6622 76.94C30.7722 76.85 30.8722 76.74 30.9722 76.64C31.1622 77.02 31.3722 77.41 31.5122 77.79C31.7022 78.25 31.8622 78.7 32.1122 79.16C32.1722 79.26 32.2922 79.31 32.3422 79.3C32.3422 79.3 32.5422 79.26 32.5922 79.16C32.8422 78.7 33.0222 78.25 33.2122 77.79C33.3622 77.41 33.5622 77.03 33.7522 76.64C33.8522 76.74 33.9422 76.85 34.0622 76.94C34.4022 77.22 34.7922 77.45 35.2022 77.62C35.6222 77.79 36.0622 77.9 36.5022 77.92C37.3722 77.97 38.2122 77.75 38.8822 77.28C38.9322 77.24 38.9722 77.18 38.9922 77.11C39.0222 76.99 38.9622 76.88 38.8622 76.82C38.8322 76.8 38.8022 76.78 38.7622 76.77C38.0122 76.61 37.3722 76.46 36.8222 76.23C36.6822 76.18 36.5522 76.12 36.4322 76.05C36.0522 75.86 35.7022 75.63 35.3722 75.36C34.9322 75 34.5522 74.54 34.1322 74.06C33.7222 73.59 33.2022 72.17 33.0522 71.63C33.0522 71.62 33.0522 71.61 33.0522 71.6C33.0622 71.62 33.0822 71.64 33.0922 71.66C33.7722 72.66 34.6822 73.51 35.7322 74.16C35.9922 74.32 36.2722 74.47 36.5522 74.61C37.4022 75.02 38.3322 75.29 39.2922 75.37C40.5622 75.44 41.8722 75.06 42.7622 74.1C42.7922 74.06 42.8222 74.02 42.8322 73.97C42.8622 73.85 42.8022 73.73 42.7022 73.66C42.6722 73.64 42.6322 73.62 42.5922 73.61C41.3822 73.32 40.4622 73.2 39.5322 73.03C38.6122 72.9 37.7022 72.63 36.8322 72.21C35.9622 71.79 35.1322 71.23 34.3722 70.57C34.1522 70.36 33.9222 70.15 33.7022 69.92C33.0722 69.02 33.3822 67.76 34.1522 67.15C34.1922 67.12 34.2422 67.09 34.2822 67.06C34.2822 67.06 34.2922 67.06 34.3022 67.05C35.9422 66.01 37.9922 65.8 40.7722 65.66C40.8422 65.66 40.8922 65.6 40.9322 65.54C41.1322 65.27 41.3322 64.82 41.4122 64.45C41.4422 64.32 41.4322 64.19 41.3122 64.12C41.2922 64.11 41.2622 64.1 41.2422 64.09C41.2422 64.09 41.2222 64.08 41.2222 64.07C40.8822 63.87 40.2822 63.49 39.5122 63.22C39.4422 63.2 39.1922 63.15 38.8622 63.1C41.8422 60.43 43.8022 55.98 43.8022 50.94C43.8022 48.37 43.2922 45.96 42.3922 43.86C44.4922 44.5 46.5222 44.5 47.3722 44.45C48.5222 44.37 50.2922 44.21 51.3722 43.94C51.4722 43.92 51.5622 43.94 51.6322 44C51.6922 44.06 51.7222 44.15 51.7122 44.24C51.4122 45.84 50.3422 51.48 49.7022 55.01C49.3022 57.22 49.0622 60.07 48.9722 61.83C48.9722 61.85 48.9922 61.94 49.0022 61.95V61.97C49.2722 62.42 49.7222 63.52 49.4022 65C49.4022 65.01 49.4022 65.02 49.4022 65.03C49.3822 65.13 49.3622 65.23 49.3322 65.34C49.7822 65.33 50.2722 65.4 50.5222 65.09C50.8222 64.72 50.7422 61.52 51.0322 58.75C51.1222 57.86 51.4822 55.71 51.4822 55.7L52.1322 56.08C52.7522 56.52 53.4022 56.92 54.0922 57.28C54.0922 57.28 54.0922 57.28 54.1022 57.28C54.3622 57.42 54.6922 57.39 54.9322 57.19C55.2522 56.92 55.2822 56.45 55.0122 56.13C54.5122 55.54 53.9822 54.99 53.4222 54.49L52.5622 53.75C52.5622 53.75 52.1222 53.44 52.0022 53.36L52.1322 52.74C52.3322 52.83 53.1022 53.16 53.3022 53.25C54.0422 53.57 54.8022 53.94 55.5822 54.2C56.3722 54.45 57.1522 54.68 57.9722 54.84C58.2822 54.9 58.6122 54.76 58.7622 54.46C58.9622 54.1 58.8222 53.65 58.4622 53.45H58.4522C57.7622 53.07 57.0422 52.72 56.3422 52.36C56.3422 52.36 56.3422 52.36 56.3322 52.36C55.9822 52.19 55.6422 52.02 55.2922 51.85C54.9422 51.68 54.5922 51.51 54.2522 51.31C53.9022 51.12 53.1522 50.72 52.8022 50.52L52.8722 50.31C53.7122 50.48 54.9422 50.78 55.7922 50.93C56.6322 51.09 57.5122 51.28 58.3922 51.34C59.2722 51.4 60.1422 51.42 61.0322 51.34C61.3522 51.31 61.6222 51.08 61.6922 50.75C61.7622 50.4 61.5722 50.05 61.2522 49.92C61.2022 49.9 61.1522 49.88 61.0922 49.87H61.0722C60.2722 49.7 59.4422 49.56 58.6422 49.38C57.8322 49.21 57.0622 49.06 56.2422 48.83C55.1922 48.54 54.4822 48.32 53.4422 48L53.5222 47.72C54.1522 47.74 54.2922 47.74 54.9222 47.75C55.8322 47.76 56.7422 47.75 57.6522 47.74H58.3322C58.5722 47.73 58.8122 47.72 59.0422 47.71C59.5122 47.69 59.9822 47.65 60.4422 47.58C61.3722 47.43 62.2622 47.24 63.1722 46.93C63.4822 46.82 63.6922 46.53 63.6722 46.19C63.6622 45.93 63.5122 45.71 63.3022 45.59C63.1822 45.52 63.0322 45.48 62.8822 45.49H62.8522C62.0022 45.54 61.1222 45.6 60.2622 45.61L58.9822 45.63H58.3522C58.1222 45.61 57.9122 45.6 57.6922 45.59C56.8122 45.53 55.9322 45.46 55.0522 45.37C54.5022 45.32 53.9522 45.25 53.4122 45.19C54.3122 45.1 55.1422 44.97 56.0022 44.83C56.9522 44.67 57.9022 44.48 58.8422 44.28C59.7722 44.09 60.7922 43.86 61.7022 43.51C62.6322 43.15 63.5122 42.76 64.3722 42.23C64.6522 42.06 64.7922 41.72 64.6922 41.39L64.7422 41.38ZM32.4022 64.07C32.4022 64.07 32.3722 64.07 32.3622 64.07C29.0522 64.05 26.1222 61.83 24.3522 58.45C25.1722 57.06 26.8822 54.02 26.8822 54.02C27.0422 54.64 27.9922 58.76 27.9922 58.76C27.9922 58.76 26.7922 59.28 27.4022 59.65C28.0122 60.02 29.3022 59.75 29.3022 59.75C29.3022 59.75 29.6322 60.05 29.9822 60.29C30.4022 60.61 30.8822 60.84 31.3922 60.98C31.5822 61.06 31.7222 61.1 31.7222 61.1C31.7222 61.1 31.6022 61.67 31.7822 61.96C31.8522 62.08 31.9222 62.18 32.1522 62.18C32.2222 62.18 32.2822 62.16 32.3522 62.14C32.5522 62.07 32.7422 61.91 32.8522 61.79C33.1322 61.5 33.2322 61.3 33.4322 61.02C33.4322 61.01 33.4322 60.99 33.4522 60.97C33.9422 60.84 34.4622 60.66 34.9622 60.04C33.7622 59.57 32.7422 58.47 32.3522 56.66C32.2122 56 32.1322 55.28 32.1222 54.52C32.1222 53.72 32.1822 52.89 32.3322 52.03C32.3322 52 32.3422 51.97 32.3522 51.94C32.9122 48.97 34.7622 46.7 35.3022 46.51C35.1322 46.13 35.2022 45.16 33.9122 44.63C33.6322 44.51 32.7722 44.46 32.6822 44.07C33.0922 43.79 33.4022 43.27 33.4722 42.65C33.5722 41.81 33.2222 41.06 32.6522 40.79C32.7922 40.48 33.1222 40.06 33.1222 40.06L32.4722 39.37L32.3422 39.44L31.6422 39.82C31.6422 39.82 31.8522 40.43 31.8522 40.75C31.2922 40.94 30.8822 41.37 30.7822 42.15C30.7322 42.53 30.9422 43.12 31.3822 43.56C31.6122 43.79 31.6622 43.99 31.5222 44.14C31.2022 44.46 30.5422 44.38 30.2022 44.87C29.9922 45.18 29.7322 45.9 29.7322 45.9C29.5722 46.22 28.6322 48.47 28.1722 49.26C28.0522 49.46 27.5922 50.19 27.5922 50.19C27.5922 50.19 27.3922 50.33 27.1622 50.51C26.9722 50.66 26.7722 50.84 26.6522 50.99C26.3022 51.44 26.4422 52.26 26.6522 52.6L23.9222 57.58C23.8122 57.35 23.7622 57.23 23.7622 57.23C22.9922 55.36 22.5622 53.21 22.5622 50.93C22.5622 43.95 26.6522 38.23 31.7922 37.82H32.9822C33.5522 37.87 34.1022 37.98 34.6422 38.15C34.9222 38.24 35.2022 38.34 35.4722 38.46C39.3722 40.2 42.2022 45.13 42.2022 50.93C42.2022 58.18 37.8022 64.07 32.3822 64.07H32.4022ZM31.3922 49.84C31.3922 49.84 29.4822 50.56 28.5722 50.93L30.4322 47.7C30.4322 47.7 30.5222 48.15 31.2722 48.47C31.2522 48.59 31.3822 49.84 31.3822 49.84H31.3922Z" fill="white"/>
<path d="M29.5922 3.93C29.5922 3.93 29.6622 3.92 29.6922 3.91C29.8322 4.14 30.0622 4.3 30.3522 4.3C30.6322 4.3 30.8822 4.15 31.0122 3.91H32.0522V4.59C31.3922 4.75 30.8922 5.35 30.8922 6.06C30.8922 6.44 31.0422 6.79 31.2722 7.05C31.0222 7.14 30.7922 7.27 30.6022 7.45C30.0022 8.02 29.8522 9.24 30.3622 10.67C30.7222 11.66 31.2422 12.48 31.7422 12.96C31.9722 13.2 32.1922 13.31 32.4022 13.31H32.4522C32.6622 13.31 32.8822 13.2 33.1122 12.96C33.6122 12.48 34.1422 11.66 34.4922 10.67C35.0022 9.24 34.8522 8.03 34.2522 7.45C34.0522 7.27 33.8122 7.13 33.5622 7.04C33.7822 6.78 33.9322 6.43 33.9322 6.06C33.9322 5.35 33.4422 4.75 32.7722 4.59V3.91H33.8122C33.9322 4.14 34.1822 4.3 34.4722 4.3C34.7622 4.3 35.0122 4.14 35.1422 3.89C35.1722 3.89 35.2022 3.91 35.2322 3.91C35.4322 3.91 35.5922 3.75 35.5922 3.55C35.5922 3.35 35.4322 3.19 35.2322 3.19C35.2122 3.19 35.1822 3.19 35.1522 3.2C35.0222 2.96 34.7722 2.79 34.4822 2.79C34.2022 2.79 33.9522 2.95 33.8222 3.18H32.7822V1.81C33.0222 1.67 33.1722 1.44 33.1722 1.15C33.1722 0.86 33.0022 0.59 32.7522 0.47C32.7722 0.43 32.7722 0.4 32.7722 0.36C32.7722 0.16 32.6122 0 32.4122 0C32.2122 0 32.0522 0.17 32.0522 0.36C32.0522 0.4 32.0622 0.44 32.0822 0.47C31.8322 0.59 31.6622 0.85 31.6622 1.15C31.6622 1.45 31.8122 1.68 32.0522 1.81V3.18H31.0122C30.8722 2.95 30.6322 2.79 30.3522 2.79C30.0522 2.79 29.7822 2.97 29.6722 3.22C29.6422 3.22 29.6222 3.22 29.5922 3.22C29.3922 3.22 29.2322 3.37 29.2322 3.58C29.2322 3.79 29.4022 3.94 29.5922 3.94V3.93Z" fill="white"/>
<path d="M39.2623 51.95C39.1023 51.8 38.9223 51.74 38.7623 51.74C38.8523 51.55 38.9123 51.28 38.8523 51.09C38.8323 51.04 38.8023 50.98 38.7623 50.94C38.5423 50.66 38.3623 50.6 38.2723 50.58C38.2123 50.57 37.9223 50.54 37.7723 50.74L37.7523 50.49C37.6323 50.59 37.5223 50.91 37.4923 50.99C37.4323 51.18 37.3023 51.65 37.3023 51.65C37.6623 51.08 37.8623 51.01 38.1723 50.93C37.9023 51.12 37.6823 51.55 37.5623 51.94L38.2823 51.46L38.1223 51.35C38.2123 51.21 38.3023 51.15 38.4523 51.24C38.5023 51.27 38.5423 51.33 38.5523 51.41C38.5523 51.47 38.5523 51.63 38.4123 51.82L37.1123 52.94C37.0123 53.02 36.9823 53.1 36.9923 53.37C36.9923 53.46 37.0823 53.56 37.2523 53.4L38.6423 52.16C38.7123 52.1 38.8123 52.16 38.8423 52.2C38.9223 52.32 38.8823 52.56 38.6723 52.87L38.5523 52.6C38.4323 52.76 38.2123 53.16 38.0323 53.36C38.0323 53.36 38.3923 53.39 38.6823 53.17C38.7623 53.11 38.8223 53.05 38.8823 52.99C38.6523 53.58 38.1223 54 38.1223 54C38.1223 54 38.4823 53.96 38.6723 53.86C38.8723 53.76 39.0623 53.63 39.2223 53.45L38.9623 53.36C39.0923 53.18 39.3023 52.96 39.3923 52.59C39.4623 52.3 39.4223 52.09 39.2823 51.95H39.2623Z" fill="white"/>
<path d="M36.3022 52.0199L36.4722 51.1499L36.2422 51.3299C36.2422 51.3299 36.0722 51.0899 36.0122 51.0299C35.7822 50.7799 35.5622 50.6699 35.3322 50.7099C35.0722 50.7599 35.0122 50.9399 34.7022 50.8499C34.7122 51.0899 34.4722 51.1799 34.3422 51.3799C34.2122 51.5699 34.2122 51.8199 34.3422 52.1299C34.3722 52.2099 34.5322 52.4699 34.5322 52.4699L34.2322 52.5599L35.1722 52.8299C35.1722 52.7299 35.0622 52.0999 35.0622 52.0999L34.8422 52.2599C34.7522 52.1499 34.7222 52.0799 34.6622 51.9799C34.5722 51.8299 34.5222 51.7099 34.5622 51.6099C34.6022 51.5199 34.7522 51.5099 34.8322 51.4999L35.8822 53.1499C35.9322 53.2499 36.0322 53.2499 36.0622 53.1899C36.1622 52.9899 36.1622 52.7699 36.1222 52.7199L35.1922 51.2899C35.2322 51.2199 35.3322 51.1299 35.4122 51.1199C35.5422 51.0999 35.6022 51.1299 35.7322 51.2399C35.8222 51.3099 35.9022 51.4399 35.9422 51.4899L35.6922 51.5899C35.8722 51.7199 36.1922 51.9299 36.2922 52.0199H36.3022Z" fill="white"/>
<path d="M36.4823 49.05C36.6223 49.25 36.8723 49.51 36.9823 49.62C36.9823 49.62 36.8223 49.82 36.7923 49.86C36.6923 50.03 37.1223 50.09 37.1523 50.1C37.2023 50.1 37.6123 50.19 37.5723 50C37.5723 49.95 37.4523 49.72 37.4523 49.72C37.5923 49.66 37.9423 49.49 38.1423 49.35C38.1723 49.33 38.2323 49.28 38.2523 49.26C38.6423 48.78 38.5123 48.47 38.5123 48.47L37.7823 48.92C37.7123 48.96 37.6823 48.92 37.6823 48.92C37.7423 48.88 37.8323 48.66 37.8523 48.61C37.8823 48.52 37.8523 48.46 37.7423 48.44C37.6423 48.42 37.6023 48.45 37.6023 48.45C37.6223 48.41 37.6223 48.41 37.6323 48.4C37.6323 48.4 37.6323 48.39 37.6423 48.38C37.6423 48.37 37.6423 48.36 37.6523 48.34C37.6523 48.34 37.6523 48.34 37.6523 48.33C37.6523 48.23 37.5723 48.14 37.4623 48.14C37.3823 48.14 37.3123 48.19 37.2923 48.27C37.2923 48.27 37.2923 48.27 37.2923 48.28C37.2923 48.32 37.2823 48.29 37.2923 48.4C37.2923 48.4 37.2623 48.36 37.1623 48.34C37.0523 48.32 37.0223 48.37 37.0223 48.46C37.0223 48.52 37.0023 48.7 37.0523 48.82C37.0523 48.82 37.0023 48.85 36.9523 48.78L36.4223 48.1C36.4223 48.1 36.1923 48.34 36.3923 48.93C36.4023 48.96 36.4423 49.03 36.4623 49.06L36.4823 49.05Z" fill="white"/>
<path d="M35.7221 54.69C35.8021 54.61 35.8521 54.51 35.8721 54.4L35.9121 54.19C35.9321 54.07 35.8021 54.01 35.7121 54.09L34.4921 55.25L34.4621 55.28C34.4621 55.28 34.4021 55.26 34.3721 55.26C34.3221 55.26 34.2621 55.26 34.2121 55.27C34.1521 55.29 34.1021 55.32 34.0521 55.36C33.8721 55.53 33.8321 55.83 33.9721 56.04C34.0421 56.14 34.1421 56.21 34.2521 56.22C34.3421 56.23 34.4321 56.21 34.5021 56.16C34.5221 56.15 34.5421 56.13 34.5621 56.12C34.6721 56.02 34.7621 55.82 34.7121 55.66L35.7021 54.7L35.7221 54.69ZM34.3021 55.95C34.1921 55.95 34.1121 55.86 34.1121 55.76C34.1121 55.66 34.2021 55.57 34.3021 55.57C34.4021 55.57 34.4921 55.66 34.4921 55.76C34.4921 55.86 34.4021 55.95 34.3021 55.95Z" fill="white"/>
<path d="M38.0123 55.6899C38.0123 55.6899 37.9223 55.69 37.8823 55.7L36.9823 54.2799C36.9223 54.1799 36.8023 54.1999 36.7823 54.3099L36.7523 54.4299C36.7223 54.5799 36.7023 54.58 36.8523 54.86L37.5823 55.9699C37.5123 56.1399 37.5223 56.3399 37.6223 56.4899C37.6923 56.5899 37.7923 56.6599 37.9123 56.6699C38.0323 56.6799 38.1423 56.6399 38.2323 56.5599C38.4123 56.3899 38.4523 56.0799 38.3123 55.8699C38.2423 55.7699 38.1423 55.6999 38.0223 55.6899H38.0123ZM37.9523 56.36C37.8423 56.36 37.7623 56.2699 37.7623 56.1699C37.7623 56.0699 37.8523 55.9799 37.9523 55.9799C38.0523 55.9799 38.1423 56.0699 38.1423 56.1699C38.1423 56.2699 38.0523 56.36 37.9523 56.36Z" fill="white"/>
<path d="M36.0223 57.1799C36.2923 55.7499 36.9823 52.0199 36.9923 51.9899C37.0423 51.6899 37.2123 50.8799 37.2523 50.4199C37.2823 50.2499 37.0023 50.1399 36.9423 50.3799C36.8623 50.7099 36.6623 51.5699 36.5923 51.8999C36.5923 51.8999 35.8423 55.6599 35.5523 57.0999C35.5323 57.1899 35.4923 57.2599 35.4423 57.3299C35.4123 57.3799 35.3823 57.4399 35.3723 57.4999C35.3423 57.7099 35.4623 57.8999 35.6523 57.9299C35.8423 57.9599 36.0123 57.8199 36.0523 57.6099C36.0523 57.5599 36.0523 57.5099 36.0523 57.4699C36.0323 57.3699 36.0223 57.2699 36.0423 57.1699L36.0223 57.1799Z" fill="white"/>
<path d="M37.9694 55.1152L36.9772 55.8589C36.9462 55.8821 36.9399 55.926 36.9631 55.9569L37.0591 56.0849C37.0823 56.1159 37.1261 56.1221 37.1571 56.099L38.1493 55.3553C38.1803 55.3321 38.1866 55.2882 38.1634 55.2573L38.0674 55.1293C38.0442 55.0983 38.0004 55.0921 37.9694 55.1152Z" fill="white"/>
</svg>
